<?xml version="1.0" encoding="utf-8" standalone="no"?>
<!DOCTYPE svg PUBLIC "-//W3C//DTD SVG 1.1//EN"
  "http://www.w3.org/Graphics/SVG/1.1/DTD/svg11.dtd">
<svg xmlns:xlink="http://www.w3.org/1999/xlink" width="388.544022pt" height="568.8pt" viewBox="0 0 388.544022 568.8" xmlns="http://www.w3.org/2000/svg" version="1.1">
 <metadata>
  <rdf:RDF xmlns:dc="http://purl.org/dc/elements/1.1/" xmlns:cc="http://creativecommons.org/ns#" xmlns:rdf="http://www.w3.org/1999/02/22-rdf-syntax-ns#">
   <cc:Work>
    <dc:type rdf:resource="http://purl.org/dc/dcmitype/StillImage"/>
    <dc:date>2025-03-20T20:34:45.807384</dc:date>
    <dc:format>image/svg+xml</dc:format>
    <dc:creator>
     <cc:Agent>
      <dc:title>Matplotlib v3.10.1, https://matplotlib.org/</dc:title>
     </cc:Agent>
    </dc:creator>
   </cc:Work>
  </rdf:RDF>
 </metadata>
 <defs>
  <style type="text/css">*{stroke-linejoin: round; stroke-linecap: butt}</style>
 </defs>
 <g id="figure_1">
  <g id="patch_1">
   <path d="M -0 568.8 
L 388.544022 568.8 
L 388.544022 0 
L -0 0 
L -0 568.8 
z
" style="fill: none"/>
  </g>
  <g id="axes_1">
   <g id="PatchCollection_1">
    <path d="M 304.33947 153.337632 
L 293.030229 165.035127 
L 264.049806 165.618804 
L 224.854937 203.735105 
L 213.226047 180.298955 
L 214.672852 179.275201 
L 216.132424 178.363775 
L 217.486224 177.465157 
L 218.595823 176.392077 
L 219.245866 175.887383 
L 220.50003 175.557496 
L 222.1544 175.016108 
L 223.722231 174.760816 
L 224.802321 174.575621 
L 225.818915 173.828965 
L 225.837646 172.474118 
L 225.830348 171.079983 
L 226.227567 169.982328 
L 226.955197 169.369461 
L 226.979565 168.151345 
L 227.018687 166.489114 
L 227.747147 166.102112 
L 228.47229 165.432995 
L 229.254794 164.55982 
L 229.98458 163.801741 
L 230.539129 162.753413 
L 231.334399 161.992565 
L 232.211734 161.44564 
L 233.019935 160.80508 
L 232.838731 160.16833 
L 232.32264 159.739966 
L 231.642091 159.286678 
L 231.135947 158.464218 
L 231.11373 157.948102 
L 230.340674 157.911758 
L 229.385916 157.68676 
L 228.913924 157.13551 
L 228.2909 155.881742 
L 227.89003 155.069493 
L 227.400796 154.091782 
L 228.092451 154.004549 
L 229.032951 153.80949 
L 229.236201 152.768604 
L 228.634398 151.634951 
L 227.632721 150.317491 
L 227.008039 149.023396 
L 226.94222 147.801299 
L 227.857355 147.986143 
L 229.560138 149.046582 
L 230.282299 149.3126 
L 231.176875 148.990502 
L 230.906146 148.156271 
L 230.341811 147.141695 
L 229.830692 145.826657 
L 229.479888 144.834754 
L 229.400806 143.685696 
L 229.883239 142.672848 
L 230.787929 142.600154 
L 231.387907 142.879672 
L 231.809666 143.400806 
L 232.225457 144.180344 
L 232.607593 144.937035 
L 233.538313 145.508014 
L 234.614757 145.838762 
L 235.323159 146.169857 
L 235.962095 146.399356 
L 236.482826 146.134374 
L 236.201321 145.437566 
L 235.935399 144.119586 
L 235.895775 143.339528 
L 236.159869 142.594257 
L 236.422472 142.010295 
L 237.318208 141.309331 
L 237.994445 141.045387 
L 238.43278 140.356886 
L 238.194212 139.110213 
L 237.532562 138.518983 
L 236.939713 138.215061 
L 236.189866 137.869601 
L 235.292968 137.933814 
L 234.840044 138.461873 
L 233.30222 138.651396 
L 232.859905 138.630801 
L 232.000806 138.822226 
L 231.752295 139.147784 
L 231.836183 139.603323 
L 231.96301 140.315015 
L 232.086025 141.131765 
L 231.339991 141.084344 
L 231.223775 140.839786 
L 230.841141 140.276421 
L 230.29637 139.946192 
L 229.647984 139.886482 
L 229.051655 140.106464 
L 228.386028 140.426311 
L 227.457963 140.733698 
L 226.866441 140.66343 
L 226.790842 140.207373 
L 227.415022 139.873159 
L 227.572849 139.527697 
L 227.248075 139.179467 
L 226.680425 138.688968 
L 226.352666 137.865295 
L 226.406047 136.960102 
L 226.902408 136.897793 
L 227.364949 137.215562 
L 227.814395 137.816138 
L 228.381546 137.887618 
L 228.818555 137.166924 
L 228.886524 136.220885 
L 228.558931 135.397212 
L 227.935907 134.143443 
L 227.778907 133.49752 
L 227.940049 132.829443 
L 228.301129 132.861634 
L 228.769638 132.719883 
L 229.058933 132.594055 
L 229.450021 132.762112 
L 230.011536 133.099785 
L 230.361842 133.471034 
L 230.690761 134.125264 
L 230.838311 134.739341 
L 230.975251 135.297341 
L 231.367334 135.690918 
L 231.856068 135.44359 
L 232.492516 134.601049 
L 232.99186 134.20799 
L 233.464679 133.969316 
L 234.284818 133.626449 
L 234.852632 133.310928 
L 235.513784 133.28133 
L 236.015285 133.549252 
L 236.916991 133.807135 
L 237.476018 133.274403 
L 238.243104 132.224689 
L 239.057605 131.132398 
L 239.810932 130.752319 
L 240.8325 130.335894 
L 241.612519 130.011027 
L 242.53561 129.38137 
L 243.487714 128.863349 
L 244.20059 128.694597 
L 244.351786 128.591097 
L 244.893406 128.236461 
L 245.56384 127.62619 
L 245.292116 126.884728 
L 245.264761 126.76392 
L 244.93319 126.242786 
L 243.154474 123.535173 
L 242.980564 122.949134 
L 242.898002 122.744557 
L 242.815607 122.493423 
L 242.714477 122.251461 
L 242.587651 122.045327 
L 242.414902 121.877616 
L 242.234528 121.702289 
L 242.096262 121.525577 
L 242.031937 121.367385 
L 242.032931 121.116423 
L 242.052659 120.809558 
L 242.026298 120.456135 
L 241.925335 120.177135 
L 241.86101 120.056154 
L 241.83382 119.879615 
L 241.825365 119.665692 
L 241.872282 119.498326 
L 242.021157 119.368345 
L 242.207168 119.219845 
L 242.681147 118.904324 
L 242.838974 118.848593 
L 242.99647 118.876804 
L 243.113349 118.788881 
L 243.108706 118.635189 
L 243.072233 118.458477 
L 242.90595 118.309458 
L 242.716126 118.112843 
L 242.49961 117.93717 
L 242.402128 117.695036 
L 242.336642 117.633247 
L 242.285249 117.555536 
L 242.195393 117.438882 
L 242.112003 117.322401 
L 242.028612 117.179959 
L 241.951853 117.043921 
L 241.868297 116.949248 
L 240.695197 115.023595 
L 240.509185 114.771076 
L 240.207124 114.46023 
L 240.046312 114.317615 
L 239.879366 114.129827 
L 239.725185 113.980808 
L 239.64826 113.851346 
L 239.597198 113.708904 
L 239.597198 113.569231 
L 239.708771 113.493423 
L 239.794648 113.312903 
L 239.85234 113.113518 
L 239.862287 112.971076 
L 239.796304 112.866364 
L 239.683073 112.790211 
L 239.597693 112.790211 
L 239.332271 112.837289 
L 239.123217 112.998597 
L 239.018606 113.112482 
L 238.914162 113.197982 
L 238.819001 113.302348 
L 238.638793 113.33056 
L 238.4493 113.349425 
L 238.164647 113.463138 
L 237.937355 113.443754 
L 237.833408 113.386638 
L 237.672596 113.329523 
L 237.524052 113.195735 
L 237.484098 113.063158 
L 237.683371 112.977831 
L 237.85413 112.940099 
L 238.177079 112.683945 
L 238.376519 112.579579 
L 238.547443 112.475386 
L 238.538987 112.218886 
L 238.482786 112.057232 
L 238.454602 112.009636 
L 238.369554 111.914617 
L 238.303737 111.809905 
L 238.200121 111.638732 
L 238.030522 111.410617 
L 237.870208 111.210886 
L 237.738574 110.982598 
L 237.673254 110.726098 
L 237.683532 110.497982 
L 237.627662 110.23179 
L 237.514927 110.022713 
L 237.420761 109.880098 
L 237.241546 109.65181 
L 237.04393 109.338021 
L 236.864881 109.100214 
L 236.71385 108.948079 
L 236.600785 108.786426 
L 236.430854 108.624599 
L 236.260924 108.462945 
L 236.090994 108.310638 
L 235.859889 108.213196 
L 235.504777 108.053447 
L 235.429344 107.939389 
L 235.354574 107.663678 
L 235.326888 107.46412 
L 235.242337 107.2836 
L 235.082022 107.102908 
L 234.874624 106.855582 
L 234.157933 105.999544 
L 234.054317 105.856929 
L 233.742805 105.590564 
L 233.563094 105.514237 
L 233.345418 105.456949 
L 233.070546 105.475642 
L 232.6967 105.524451 
L 232.343412 105.57049 
L 232.132202 105.59801 
L 231.933425 105.55976 
L 231.696849 105.502472 
L 231.583783 105.331299 
L 231.726524 105.160472 
L 231.982994 104.980298 
L 232.230677 104.846855 
L 232.496098 104.610258 
L 232.629555 104.372969 
L 232.838775 104.164238 
L 232.877237 104.040661 
L 232.79252 103.860141 
L 232.603856 103.660238 
L 232.521627 103.572488 
L 232.429118 103.483873 
L 232.006033 102.9752 
L 231.782886 102.861143 
L 231.604667 103.006874 
L 231.459937 103.088913 
L 231.166165 103.098087 
L 230.938874 103.059664 
L 230.987117 102.85076 
L 231.120573 102.622817 
L 231.149586 102.470855 
L 231.122065 102.252259 
L 231.00933 102.005105 
L 230.972359 101.748605 
L 231.058236 101.606162 
L 231.314208 101.549393 
L 231.238941 101.416297 
L 231.030324 101.248152 
L 231.030217 101.247893 
L 231.002863 101.225912 
L 230.767281 100.902605 
L 230.664162 100.627066 
L 230.579611 100.455893 
L 230.466545 100.275201 
L 230.287497 100.037394 
L 230.08043 99.704567 
L 229.976814 99.552432 
L 229.694343 99.383353 
L 229.69415 99.383163 
L 229.627007 99.34301 
L 229.419278 99.200222 
L 229.230282 99.066953 
L 229.051068 98.867222 
L 228.852788 98.705569 
L 228.644893 98.553261 
L 228.408649 98.410473 
L 227.954894 98.143762 
L 227.784798 98.04857 
L 227.614868 97.905955 
L 227.350274 97.706052 
L 227.256108 97.591994 
L 227.124474 97.306763 
L 227.049538 97.107033 
L 226.927023 96.92634 
L 226.833022 96.774379 
L 226.370646 96.270206 
L 226.286261 96.042091 
L 226.097928 95.766206 
L 226.022993 95.519053 
L 225.872293 95.309976 
L 225.787908 95.100726 
L 225.656274 94.834534 
L 225.552824 94.653841 
L 225.46877 94.349745 
L 225.40345 94.102591 
L 225.347248 93.903033 
L 225.357527 93.703475 
L 225.338461 93.539745 
L 225.318898 93.389687 
L 224.94389 92.866822 
L 224.83099 92.695649 
L 224.736824 92.51513 
L 224.700019 92.248937 
L 224.748593 91.954533 
L 224.844085 91.755148 
L 225.034406 91.546243 
L 225.376255 91.318646 
L 225.603712 91.299953 
L 225.849903 91.319164 
L 226.05813 91.357414 
L 226.20601 91.406048 
L 226.493482 91.500548 
L 226.729561 91.67172 
L 226.908941 91.862105 
L 227.154138 92.109431 
L 227.456531 92.318681 
L 227.824906 92.604257 
L 228.042417 92.690103 
L 228.449917 92.680929 
L 228.705558 92.719352 
L 228.942133 92.786159 
L 229.188325 92.814889 
L 229.405835 92.900735 
L 229.793938 92.967715 
L 229.798083 92.96633 
L 230.031177 92.887234 
L 230.363576 92.659463 
L 230.580091 92.471501 
L 230.791798 92.137462 
L 231.096842 91.653192 
L 231.506828 90.998094 
L 231.938861 89.506861 
L 231.836239 89.088707 
L 231.808552 88.946091 
L 231.914157 88.585225 
L 232.253681 87.000704 
L 231.577773 86.257166 
L 230.490884 85.668879 
L 229.911132 85.283611 
L 229.232074 84.87065 
L 228.191274 84.610864 
L 227.893191 84.317845 
L 227.437281 83.757769 
L 226.395153 83.264328 
L 225.17746 83.076888 
L 224.440709 82.448793 
L 224.013645 82.000351 
L 223.279547 81.436641 
L 222.93322 80.960506 
L 222.369715 80.373084 
L 221.945138 79.980892 
L 221.586709 79.609989 
L 221.207723 79.135239 
L 220.855429 78.715701 
L 220.505952 77.957624 
L 219.827722 76.956028 
L 219.137058 75.850413 
L 219.064609 75.273374 
L 219.040568 74.476527 
L 218.904291 73.93445 
L 218.736183 73.216526 
L 218.49314 72.260276 
L 218.253579 71.655891 
L 218.219924 71.571083 
L 217.408073 71.309219 
L 216.754051 71.314067 
L 215.672799 71.467243 
L 214.674275 71.447168 
L 213.881323 71.047362 
L 213.455087 70.212092 
L 213.677569 69.444495 
L 214.001181 68.752878 
L 214.668796 67.868798 
L 215.016944 67.377778 
L 215.390125 66.70018 
L 215.804751 65.625716 
L 215.942186 64.982907 
L 216.497232 63.741078 
L 217.553448 62.766997 
L 218.401439 62.301937 
L 218.970911 62.228205 
L 219.94838 61.934837 
L 220.609863 61.913374 
L 222.102426 60.979447 
L 221.982231 60.674485 
L 221.426685 60.675871 
L 220.617816 59.881795 
L 220.230043 59.189833 
L 220.025794 58.384852 
L 220.208156 57.635254 
L 220.383887 56.926157 
L 220.566912 56.192482 
L 220.40411 55.603328 
L 220.269821 54.303692 
L 220.166369 53.56673 
L 220.108011 52.731114 
L 220.528277 52.808997 
L 220.866148 53.076055 
L 221.210816 53.512035 
L 221.677005 53.716957 
L 222.285934 53.810764 
L 223.011411 53.955628 
L 223.566128 53.922742 
L 224.686673 54.743298 
L 225.868721 54.448718 
L 226.434213 53.875485 
L 227.180412 53.318348 
L 228.102177 52.857961 
L 228.124228 53.606693 
L 228.932766 54.997193 
L 229.559767 55.541519 
L 230.310609 55.911037 
L 230.518005 55.377786 
L 230.490152 54.685824 
L 230.247938 54.156727 
L 229.969914 53.145438 
L 229.770638 52.25963 
L 229.821367 51.693148 
L 230.191398 50.733607 
L 230.747606 49.927067 
L 231.395825 49.172622 
L 231.409583 48.503159 
L 231.586971 47.632754 
L 232.93381 47.169597 
L 233.564788 46.794883 
L 234.399185 46.604496 
L 234.695941 47.066785 
L 234.817629 47.448246 
L 235.598312 47.743861 
L 236.15618 47.791629 
L 236.671772 47.800801 
L 237.096845 47.79803 
L 237.86012 47.667182 
L 238.760997 47.296449 
L 240.080149 46.754022 
L 240.990144 46.407174 
L 241.76751 46.219383 
L 243.361866 45.809706 
L 244.259427 45.560127 
L 244.933842 45.860414 
L 245.654678 46.295875 
L 246.589377 47.164893 
L 247.139951 47.639989 
L 247.765792 48.152123 
L 248.158869 48.368295 
L 248.411858 48.760141 
L 248.896284 49.213948 
L 249.228019 48.925082 
L 250.310098 48.18379 
L 251.523148 47.847498 
L 252.437288 47.80665 
L 252.975593 47.77463 
L 253.864037 47.904263 
L 254.223459 47.8963 
L 255.025694 48.118357 
L 255.2694 48.68778 
L 255.457402 49.493627 
L 255.228952 50.519282 
L 255.142911 51.224399 
L 256.072637 51.771321 
L 256.504009 51.518281 
L 257.43655 50.719009 
L 258.043655 50.36143 
L 258.563059 50.064255 
L 259.301465 49.515426 
L 260.165039 48.832115 
L 260.831827 48.334863 
L 261.978563 47.977456 
L 262.739351 47.782397 
L 263.623152 47.597721 
L 264.118186 47.301758 
L 264.93418 46.652717 
L 265.431534 46.009908 
L 266.452272 44.964865 
L 267.220022 44.33417 
L 268.541826 43.453032 
L 269.656731 43.12124 
L 270.393978 43.152739 
L 271.203012 43.543891 
L 271.861678 44.062602 
L 272.76156 44.070908 
L 273.547713 43.898694 
L 274.704563 43.790692 
L 275.605605 43.629555 
L 276.662818 43.687187 
L 277.399403 43.904224 
L 278.162183 44.772897 
L 278.288016 45.661994 
L 278.830963 45.742474 
L 279.313065 45.326049 
L 279.648448 44.924163 
L 279.750073 44.202258 
L 279.708625 43.583507 
L 279.354009 42.696661 
L 279.050122 41.855852 
L 278.591889 40.836602 
L 278.414165 39.675774 
L 278.872561 39.284445 
L 279.259337 38.936732 
L 279.942371 38.237326 
L 281.016327 37.697842 
L 281.653106 37.064897 
L 282.673513 36.01172 
L 283.541728 35.239621 
L 284.149164 34.688542 
L 284.64917 33.505558 
L 283.723424 32.853752 
L 282.819564 33.353427 
L 281.96776 33.923546 
L 280.576491 34.501453 
L 279.30293 35.162784 
L 278.68107 35.150151 
L 278.410175 34.719016 
L 278.272572 33.943284 
L 278.648406 33.330071 
L 279.650907 32.237433 
L 281.055768 30.579004 
L 281.780413 29.692155 
L 282.895483 28.554343 
L 283.572547 27.500474 
L 284.069403 26.237183 
L 284.955689 25.101448 
L 285.783784 24.347176 
L 286.422884 23.165923 
L 287.142885 21.151129 
L 287.889912 20.416588 
L 288.610745 19.634796 
L 289.879662 18.256234 
L 290.892775 17.63073 
L 292.11229 17.253939 
L 293.434594 17.194916 
L 294.266836 17.149741 
L 295.005241 15.996526 
L 295.354715 15.336063 
L 295.631077 14.687023 
L 296.110195 13.795155 
L 297.493671 12.822631 
L 298.402008 12.636917 
L 299.53432 12.127029 
L 300.620047 11.675641 
L 301.471188 11.291062 
L 302.831123 10.545269 
L 303.794666 10.107381 
L 304.876414 9.559416 
L 305.733854 9.126202 
L 307.006257 9.246661 
L 307.535776 9.601815 
L 308.251638 10.319564 
L 308.605758 11.190315 
L 309.483592 11.666968 
L 310.317658 11.670081 
L 311.111437 11.280137 
L 311.846527 10.650826 
L 313.077481 9.951072 
L 313.861811 9.529281 
L 315.169855 8.713219 
L 315.822053 8.055351 
L 316.572395 7.401291 
L 317.471946 7.2 
L 311.348072 38.666316 
L 299.991918 102.594457 
L 298.706764 108.966119 
L 298.541149 111.020025 
L 298.112268 113.284393 
L 297.633152 114.969299 
L 297.573139 115.920358 
L 297.210237 116.608859 
L 297.043625 117.55836 
L 297.548942 119.154649 
L 297.884327 119.77236 
L 298.451645 120.441821 
L 299.028912 121.498628 
L 299.469074 122.626051 
L 300.203671 123.894705 
L 300.582161 124.851993 
L 300.936446 125.816897 
L 301.086981 126.472339 
L 301.218782 127.313147 
L 301.462819 128.147378 
L 301.566935 129.229802 
L 301.423533 130.236072 
L 301.332518 130.968707 
L 301.312625 131.767112 
L 301.410608 133.252632 
L 301.105399 134.369671 
L 301.159116 135.604576 
L 301.30302 136.703615 
L 301.499643 137.488692 
L 302.134438 138.998095 
L 302.737402 140.498845 
L 303.00979 141.575557 
L 303.194642 142.078345 
L 303.640771 142.81046 
L 304.189356 143.641055 
L 304.643777 144.889632 
L 304.959268 145.773363 
L 305.298466 146.673535 
L 305.932763 147.674611 
L 306.776779 149.216207 
L 306.938588 150.649284 
L 304.33947 153.337632 
" clip-path="url(#p5267bd307b)" style="fill: #eaeaea"/>
    <path d="M 329.609936 561.380318 
L 329.453509 561.6 
L 327.284538 559.910951 
L 327.097365 559.026184 
L 326.742086 557.978034 
L 301.327521 545.270461 
L 300.406392 530.158118 
L 260.486572 494.100128 
L 244.736935 471.773458 
L 209.35691 488.893738 
L 206.109013 489.600243 
L 204.431432 489.176554 
L 202.912508 489.294076 
L 203.307903 487.903406 
L 203.518614 486.554101 
L 203.393112 485.4092 
L 203.102322 484.073569 
L 202.73925 482.853207 
L 202.188842 481.888826 
L 201.469166 480.803291 
L 200.943791 480.033794 
L 198.922037 477.970206 
L 199.975102 476.619688 
L 200.804024 474.369518 
L 201.301377 472.985078 
L 201.964514 471.081235 
L 201.964511 469.869699 
L 202.022533 468.383491 
L 201.964506 466.927398 
L 202.130122 465.196632 
L 202.959043 462.773559 
L 202.793422 461.734927 
L 202.793418 459.485104 
L 202.959034 458.100319 
L 203.787956 456.023398 
L 204.285476 454.985111 
L 204.948449 454.119554 
L 206.108943 452.562035 
L 207.269437 451.523401 
L 208.500225 450.667015 
L 209.756378 449.792803 
L 210.91687 447.542632 
L 211.579841 445.292809 
L 213.071904 443.215887 
L 213.071897 439.754182 
L 213.7352 438.023588 
L 215.012239 435.60709 
L 216.387754 433.004361 
L 217.879653 431.792822 
L 207.342993 424.17903 
L 215.626762 413.184149 
L 201.958421 406.915168 
L 207.980798 355.02331 
L 207.984526 354.957975 
L 208.725505 354.938501 
L 212.121781 354.885187 
L 212.40544 354.88034 
L 213.629763 354.858703 
L 214.051024 354.851433 
L 214.474439 354.84399 
L 215.369679 354.828238 
L 215.723133 354.822006 
L 216.798582 354.803139 
L 217.135292 354.79708 
L 218.102483 354.780117 
L 222.081494 354.710186 
L 226.406831 354.634369 
L 227.36938 354.617406 
L 230.720562 354.558553 
L 232.231197 354.589704 
L 233.110688 354.560625 
L 233.739014 354.560624 
L 234.154637 354.550931 
L 234.531467 354.560795 
L 235.797569 354.551101 
L 236.706238 354.502464 
L 242.906937 354.39826 
L 249.744251 354.38665 
L 255.272691 354.299408 
L 256.06531 354.280022 
L 258.568502 354.25094 
L 261.767659 354.241414 
L 281.909239 354.036278 
L 312.27811 353.92545 
L 341.323361 358.282773 
L 340.038692 359.000351 
L 338.52922 360.257237 
L 337.611435 361.481583 
L 337.885978 362.561581 
L 338.732811 363.516444 
L 339.613132 364.260845 
L 340.495276 364.754285 
L 341.578849 365.216744 
L 343.241676 365.71624 
L 344.832718 366.117948 
L 346.068151 366.727522 
L 347.313033 367.150865 
L 348.659542 368.012438 
L 349.674481 369.09832 
L 350.030424 370.041241 
L 350.521648 371.212104 
L 351.599089 372.565908 
L 352.389886 373.488059 
L 353.149847 374.190922 
L 353.588516 374.786132 
L 354.291447 375.602014 
L 354.559192 376.479339 
L 354.415623 377.491146 
L 354.720505 378.830759 
L 355.067993 379.846372 
L 355.317999 380.974831 
L 355.330105 382.757694 
L 355.569833 384.218288 
L 355.158854 385.503383 
L 354.838227 386.513805 
L 354.5239 387.759266 
L 354.307221 388.867649 
L 353.373852 390.018957 
L 351.704067 391.772227 
L 350.951734 392.333343 
L 350.565623 393.505245 
L 350.164259 394.547514 
L 349.781296 395.22511 
L 349.622475 396.123378 
L 350.051198 397.010049 
L 350.626971 397.573758 
L 350.651344 398.740814 
L 350.23423 399.718006 
L 349.839497 400.962774 
L 350.130618 401.961945 
L 350.446109 402.936885 
L 351.176062 403.323537 
L 351.976806 403.937784 
L 352.536001 404.574359 
L 353.383994 405.350953 
L 354.338089 405.909642 
L 355.422491 406.250601 
L 356.392998 406.768964 
L 357.572064 407.394288 
L 358.503281 407.741997 
L 359.886924 407.866609 
L 360.884123 408.004204 
L 362.137626 408.330451 
L 363.80327 408.41664 
L 364.831968 408.704464 
L 363.749061 409.65708 
L 362.737938 410.552754 
L 362.638303 411.501041 
L 362.946168 412.463866 
L 363.419817 412.923729 
L 364.20166 412.596267 
L 364.793845 412.771938 
L 364.917191 413.532956 
L 364.992127 414.221282 
L 365.786073 414.833625 
L 366.699883 415.429353 
L 367.008411 416.521813 
L 370.101336 436.243023 
L 374.170582 462.189619 
L 381.344022 506.388337 
L 378.393875 507.42109 
L 377.520354 508.054378 
L 376.596598 507.75513 
L 375.509545 507.811209 
L 374.331973 508.182633 
L 372.744745 508.413001 
L 371.633487 508.468907 
L 370.395734 508.199775 
L 369.337194 507.623952 
L 367.252276 505.696229 
L 362.994579 505.15693 
L 361.708085 504.994068 
L 359.294583 504.311458 
L 357.51455 506.192111 
L 359.294601 514.522973 
L 358.744862 517.182294 
L 358.546584 517.942446 
L 357.139569 520.580654 
L 355.016195 522.289961 
L 352.663207 523.349886 
L 351.337097 526.638342 
L 346.363541 527.15758 
L 343.876771 531.657573 
L 341.224209 532.52296 
L 341.555787 536.676968 
L 340.961619 540.442594 
L 339.731995 543.080628 
L 337.137789 544.13138 
L 336.395072 544.441534 
L 334.261088 546.023111 
L 332.705376 555.748799 
L 332.277487 557.147257 
L 331.836169 558.148505 
L 330.998458 559.430311 
L 329.609936 561.380318 
" clip-path="url(#p5267bd307b)" style="fill: #eaeaea"/>
    <path d="M 131.87776 280.252719 
L 131.936784 280.260545 
L 131.47607 281.583198 
L 131.375274 282.50916 
L 131.941765 283.784907 
L 131.671371 284.470638 
L 131.571736 285.694291 
L 131.390535 286.628906 
L 130.11797 287.578754 
L 129.293853 288.268121 
L 128.760524 289.454564 
L 128.002888 290.755064 
L 128.657577 291.989792 
L 129.367637 293.015098 
L 129.782269 294.428615 
L 129.330342 295.920192 
L 129.111509 297.506787 
L 128.772646 298.45369 
L 128.659249 298.917883 
L 128.359347 300.295921 
L 127.930961 301.642459 
L 127.503736 303.270766 
L 127.347734 304.494765 
L 127.590943 305.169072 
L 128.488503 304.817205 
L 128.507736 305.661992 
L 128.407106 306.668434 
L 128.893191 307.904374 
L 129.337663 308.69793 
L 129.968645 310.061773 
L 129.80452 311.245619 
L 129.360052 312.600464 
L 128.698904 313.900272 
L 128.910779 314.77604 
L 129.35409 315.304096 
L 129.597962 316.147326 
L 130.071776 316.22469 
L 130.353611 316.456266 
L 131.011281 316.339265 
L 131.820644 315.995879 
L 132.414818 316.112704 
L 132.866087 316.592472 
L 133.602172 315.976144 
L 134.000386 315.160779 
L 133.964906 314.227549 
L 133.261974 312.952841 
L 132.655695 311.798074 
L 132.412653 311.18019 
L 132.802909 310.380921 
L 133.224665 309.42069 
L 133.573143 308.154979 
L 134.269108 307.538997 
L 134.94402 307.743746 
L 135.827822 308.027417 
L 136.516658 307.628647 
L 137.164712 307.093319 
L 137.653114 306.784376 
L 138.079846 307.16774 
L 138.443083 307.728508 
L 139.088818 308.681813 
L 139.3559 309.307658 
L 139.535281 310.062965 
L 139.659456 311.083944 
L 139.654982 312.041578 
L 139.722458 312.902115 
L 140.046902 313.849364 
L 139.536949 314.850614 
L 139.001961 315.554172 
L 138.883758 316.150422 
L 138.725102 316.642306 
L 138.904981 317.566362 
L 139.437651 318.359572 
L 140.387933 319.222358 
L 141.45924 320.269296 
L 142.289494 321.269678 
L 143.007014 322.109791 
L 143.709283 323.199481 
L 144.09689 323.864787 
L 144.437249 324.739516 
L 143.5876 325.050883 
L 142.954135 325.183807 
L 142.106145 325.92977 
L 141.241411 326.450386 
L 140.616567 326.76833 
L 140.243221 327.824964 
L 140.65636 328.828116 
L 141.253852 329.829883 
L 142.027241 330.605265 
L 143.024938 331.266589 
L 144.23716 331.363163 
L 145.616161 330.991911 
L 146.674699 330.751678 
L 147.935496 330.992771 
L 149.181041 331.410922 
L 150.512462 331.168785 
L 151.561052 330.445841 
L 152.497405 329.731551 
L 153.280739 328.857339 
L 153.783071 330.149529 
L 154.261198 331.369373 
L 154.810114 332.218659 
L 155.831021 332.654464 
L 156.420389 333.61625 
L 156.602922 335.20821 
L 156.675204 335.294229 
L 156.705709 335.336286 
L 156.723945 335.37644 
L 156.559323 336.439651 
L 155.942934 336.862132 
L 154.644505 337.361461 
L 153.650458 337.665732 
L 152.279581 338.044946 
L 152.628892 339.177213 
L 152.534893 339.813616 
L 151.613958 340.374906 
L 150.870247 341.063753 
L 150.673296 342.070887 
L 151.069524 342.864789 
L 150.752379 343.904981 
L 150.612957 345.257575 
L 151.55959 345.1629 
L 152.216596 344.884938 
L 152.611332 345.284744 
L 152.004062 345.996783 
L 150.685078 347.389534 
L 150.190708 348.253707 
L 149.875388 349.800667 
L 149.78172 350.525513 
L 149.27326 351.912897 
L 148.956778 353.146069 
L 147.87669 354.070647 
L 146.483267 354.860225 
L 145.370849 355.736688 
L 144.706549 356.207804 
L 143.708027 357.453439 
L 143.487203 358.525131 
L 143.756939 359.842936 
L 144.065301 360.750203 
L 144.444619 361.303009 
L 145.185017 361.893546 
L 145.019565 362.691256 
L 144.614056 363.715698 
L 144.111397 364.53989 
L 143.776844 365.218005 
L 143.360724 365.526429 
L 142.752459 365.989064 
L 142.496653 366.272391 
L 142.128112 366.451873 
L 141.601912 367.36468 
L 141.630595 368.619659 
L 141.754273 369.495946 
L 142.158293 370.241559 
L 142.810327 370.752307 
L 143.511435 371.528208 
L 143.682858 372.307572 
L 143.525862 373.274206 
L 142.975954 374.315782 
L 142.479926 374.745533 
L 142.854769 376.247837 
L 143.155008 377.114778 
L 143.261775 377.773853 
L 142.911804 378.629199 
L 142.738063 379.410814 
L 142.846323 380.472293 
L 143.14822 381.789925 
L 143.353797 383.140268 
L 143.938359 384.922783 
L 144.453127 387.381682 
L 144.731981 388.989045 
L 144.703966 390.115774 
L 144.781058 391.410733 
L 144.920485 392.230597 
L 145.284883 393.097191 
L 145.393143 394.142573 
L 145.372421 395.043956 
L 144.934916 396.117032 
L 144.039512 397.048187 
L 142.821821 397.659842 
L 140.896226 397.817346 
L 138.937308 397.604985 
L 137.289733 396.988316 
L 137.189928 396.047472 
L 136.945891 395.172051 
L 136.565412 394.281399 
L 135.976209 393.383998 
L 134.719555 392.12106 
L 134.098024 391.175544 
L 132.728636 389.832818 
L 131.353944 389.198149 
L 129.874309 388.403384 
L 128.756418 387.799176 
L 127.679476 387.379813 
L 125.936244 386.924625 
L 124.602169 386.44261 
L 123.262459 386.604439 
L 122.214035 387.407863 
L 121.294758 388.371556 
L 120.137079 387.856136 
L 119.436138 387.128523 
L 117.773311 386.697046 
L 116.456147 386.456299 
L 114.432075 386.027074 
L 113.202113 385.496077 
L 111.462198 385.933965 
L 110.026499 386.184929 
L 108.37892 383.371398 
L 107.666371 381.686325 
L 107.26119 380.618962 
L 107.602208 379.522348 
L 107.718753 378.475407 
L 107.704326 376.769737 
L 107.482005 375.266566 
L 107.388831 373.915357 
L 107.225365 373.13582 
L 107.242437 371.252919 
L 107.085436 370.038787 
L 106.920311 368.792808 
L 106.562876 367.636484 
L 105.981631 366.714852 
L 105.119546 365.811393 
L 103.601782 365.579993 
L 102.590824 365.642995 
L 101.064107 365.15423 
L 100.308457 364.797001 
L 99.655593 364.044984 
L 99.211785 363.420351 
L 98.390649 362.733758 
L 97.763649 362.456317 
L 96.576296 362.584743 
L 95.172925 362.90788 
L 94.218665 363.107266 
L 92.791421 363.486826 
L 91.484703 363.873655 
L 90.194895 364.477696 
L 89.234503 365.20012 
L 88.009518 366.012891 
L 86.954629 367.218891 
L 85.698477 368.273104 
L 84.795281 369.236623 
L 84.066988 369.788566 
L 83.04111 370.16553 
L 81.631274 370.915128 
L 80.614846 371.662129 
L 79.686617 372.416572 
L 78.925497 372.775707 
L 77.738973 373.089325 
L 76.791013 372.83802 
L 76.049454 372.014176 
L 75.788837 370.961871 
L 75.663999 369.779757 
L 75.304409 369.139374 
L 75.635975 366.889377 
L 76.068507 366.333281 
L 75.816014 365.320956 
L 75.179066 364.536574 
L 75.127173 363.515075 
L 75.59021 362.860325 
L 76.167142 362.615074 
L 76.752695 362.530785 
L 77.032706 362.287439 
L 77.633511 361.993899 
L 77.711594 361.397823 
L 77.675783 360.416478 
L 77.736458 359.458499 
L 77.556413 358.502077 
L 77.98397 356.930194 
L 78.55775 355.840156 
L 78.924134 355.081387 
L 79.041342 354.219638 
L 79.131526 352.593582 
L 78.901911 351.259508 
L 78.68904 350.158394 
L 78.434723 348.639301 
L 77.800258 346.390516 
L 77.168115 344.713058 
L 77.051068 343.474522 
L 77.191154 342.266619 
L 77.09798 340.963698 
L 77.517745 339.448238 
L 77.118199 337.744991 
L 76.183832 336.857974 
L 75.391043 335.149363 
L 74.544874 334.2215 
L 74.708169 332.820444 
L 75.146006 331.843771 
L 75.269845 330.611984 
L 41.752038 323.406527 
L 39.00481 322.732572 
L 37.462842 322.469152 
L 36.362856 322.323597 
L 34.922351 323.435445 
L 33.617126 324.224678 
L 31.176772 326.236354 
L 30.039984 327.008279 
L 29.104129 327.851164 
L 26.601768 328.326439 
L 25.734545 327.947056 
L 25.071237 327.601077 
L 24.739666 327.254925 
L 23.74512 326.9086 
L 23.247765 327.081851 
L 22.584624 327.081853 
L 21.589747 327.427835 
L 20.595202 327.601087 
L 19.838559 327.707704 
L 19.523233 326.504303 
L 19.334236 325.696381 
L 19.303564 324.764709 
L 19.639443 324.200824 
L 19.834571 323.355344 
L 19.372194 322.494288 
L 19.018739 321.93179 
L 19.055708 321.728598 
L 19.863247 321.085443 
L 20.662165 320.912537 
L 21.433231 320.50494 
L 22.203799 319.546093 
L 22.565707 319.103535 
L 22.84124 318.273112 
L 23.075659 317.370344 
L 23.404574 316.368921 
L 23.60451 315.82321 
L 23.875402 315.203421 
L 24.273119 314.49294 
L 24.711619 313.830575 
L 24.890997 313.001364 
L 24.907409 312.50671 
L 24.706973 311.998731 
L 24.491783 311.564135 
L 24.245094 311.162079 
L 23.937562 310.979829 
L 23.534372 310.823196 
L 22.893279 310.329409 
L 22.25716 309.63295 
L 21.859274 308.787298 
L 21.757811 307.945799 
L 22.005659 307.383126 
L 21.981452 306.354185 
L 21.578593 305.703071 
L 21.055041 305.037419 
L 20.739219 304.312228 
L 20.27966 303.127172 
L 19.811646 301.901444 
L 19.765721 301.01858 
L 19.619331 300.372311 
L 19.171377 299.397544 
L 18.544541 298.27947 
L 18.226729 297.432779 
L 17.73766 296.401935 
L 17.249587 295.435994 
L 16.588599 294.683112 
L 15.86793 294.222729 
L 15.075476 293.779655 
L 14.318168 293.53856 
L 13.513612 293.346966 
L 12.718506 293.244333 
L 11.803206 293.159355 
L 11.085024 292.844876 
L 10.442273 292.237724 
L 9.715635 291.504399 
L 8.87245 290.792017 
L 8.327015 290.248211 
L 7.745605 289.469886 
L 7.349211 288.721503 
L 7.232165 287.904581 
L 7.2 286.87564 
L 7.254375 285.732122 
L 7.331629 285.03393 
L 7.442207 284.416392 
L 7.600529 283.263354 
L 7.972052 282.423584 
L 8.368442 281.63193 
L 8.714434 280.687103 
L 8.84076 279.534412 
L 8.86861 278.755912 
L 8.961117 278.009086 
L 9.004218 276.663067 
L 8.99182 276.623546 
L 10.215621 275.328562 
L 10.410413 274.270635 
L 12.228367 261.847435 
L 11.64946 246.118731 
L 11.649233 246.11854 
L 11.649916 246.117255 
L 11.990768 244.988447 
L 12.323164 243.747139 
L 12.920651 242.552388 
L 13.73482 241.356079 
L 14.474881 239.645386 
L 15.00821 238.450982 
L 15.999271 237.350038 
L 17.581355 235.472843 
L 18.533458 234.661802 
L 19.884604 233.260915 
L 20.932697 232.392932 
L 21.941498 231.710315 
L 23.043469 230.214409 
L 23.922626 229.2431 
L 24.952646 227.82006 
L 26.568386 226.344922 
L 28.060784 226.230515 
L 29.649338 226.123376 
L 31.231427 226.362392 
L 33.334246 226.404791 
L 34.938881 226.273595 
L 36.839608 225.898879 
L 38.106206 225.4963 
L 39.002937 224.935182 
L 40.283626 224.009392 
L 41.995687 222.549657 
L 44.006825 221.651211 
L 46.45116 220.709667 
L 47.636689 220.106491 
L 48.900799 219.04397 
L 50.107049 217.531275 
L 51.426365 216.235099 
L 52.578736 215.310347 
L 54.254824 214.985305 
L 55.715392 214.967647 
L 57.192207 214.965913 
L 58.683278 214.529583 
L 60.029287 213.885042 
L 61.639391 213.05375 
L 62.558502 212.033806 
L 62.788278 211.235575 
L 63.15234 209.841093 
L 63.636927 208.510304 
L 64.298407 207.27488 
L 65.344177 205.747128 
L 66.45394 204.194798 
L 67.686551 203.301546 
L 68.694523 202.433909 
L 69.831477 201.694176 
L 70.496109 201.427982 
L 71.306135 201.137211 
L 72.573729 200.99217 
L 73.504779 201.04236 
L 74.419415 200.963781 
L 75.171748 200.411664 
L 75.970167 199.287873 
L 77.202778 198.386659 
L 78.323982 197.719445 
L 79.316205 196.940424 
L 80.72687 196.432094 
L 81.768664 196.022938 
L 83.027138 195.5963 
L 83.971615 194.922163 
L 84.41194 194.637624 
L 85.855929 194.442909 
L 86.859427 194.516811 
L 87.863257 194.695251 
L 89.412687 194.829901 
L 91.755895 194.766031 
L 99.388813 194.996206 
L 99.864966 202.807685 
L 101.217608 202.914817 
L 101.245297 204.434259 
L 101.829692 205.062527 
L 101.876278 205.554065 
L 101.903801 206.495257 
L 101.498126 207.485604 
L 101.663748 208.350815 
L 101.829701 209.389449 
L 101.995323 210.600987 
L 101.663754 211.293295 
L 101.682494 213.915583 
L 101.990525 214.718313 
L 103.051385 215.129715 
L 104.337548 215.692385 
L 104.718027 216.55898 
L 104.535997 217.244192 
L 103.987748 218.744423 
L 104.273897 220.134576 
L 104.368066 221.735191 
L 103.996711 223.30673 
L 103.438182 224.179385 
L 103.596676 225.803711 
L 103.859118 227.322806 
L 103.447808 228.959076 
L 103.21422 230.680499 
L 102.943494 231.006403 
L 103.304079 232.231267 
L 103.321822 233.940574 
L 102.934054 235.415709 
L 102.940191 237.073266 
L 102.49589 238.460132 
L 101.109761 239.088923 
L 99.985737 238.935407 
L 99.393553 239.414138 
L 100.159317 240.31829 
L 101.553077 241.725229 
L 102.117411 242.429651 
L 102.818684 243.237745 
L 103.72752 243.778954 
L 104.362146 243.935587 
L 105.09525 244.679124 
L 105.83598 245.32591 
L 106.823895 245.52062 
L 108.113209 246.936385 
L 108.966673 247.646864 
L 110.27787 248.49113 
L 111.661184 249.254396 
L 112.674299 249.746624 
L 113.760193 250.415391 
L 114.055461 252.111197 
L 114.180963 253.510523 
L 113.870283 254.140177 
L 113.076504 254.322428 
L 113.416863 255.221389 
L 114.110842 256.230598 
L 115.110363 257.414961 
L 115.980074 258.181689 
L 116.728264 258.667514 
L 117.512432 260.207377 
L 118.199282 261.458029 
L 118.493388 262.864277 
L 118.714051 263.940988 
L 118.878512 265.010083 
L 119.331937 266.085408 
L 119.110284 266.883466 
L 119.04895 269.828887 
L 118.532034 271.095637 
L 118.664996 272.333829 
L 119.247071 273.480634 
L 120.238469 274.632804 
L 120.550481 276.513629 
L 120.890342 277.267724 
L 121.953691 278.322971 
L 122.897177 279.56393 
L 123.494669 280.533505 
L 124.530827 280.727868 
L 124.880632 279.848464 
L 124.844986 278.891176 
L 124.960204 277.514523 
L 125.613727 276.254869 
L 126.65552 275.837578 
L 127.714888 275.838614 
L 127.974343 276.577306 
L 127.359945 277.498595 
L 126.742727 277.719961 
L 126.498528 278.96075 
L 126.467693 279.306903 
L 126.6426 281.003575 
L 127.013628 281.516054 
L 127.416487 281.939918 
L 128.763492 281.568839 
L 129.708466 281.047703 
L 131.358525 280.183873 
L 131.87776 280.252719 
" clip-path="url(#p5267bd307b)" style="fill: #eaeaea"/>
    <path d="M 154.764448 217.793081 
L 159.592118 219.915686 
L 162.591834 218.58541 
L 163.425732 217.940351 
L 164.367226 217.91456 
L 164.65772 217.90659 
L 164.692829 217.933944 
L 165.461907 218.199096 
L 166.028893 218.342057 
L 166.940877 218.363516 
L 167.528752 218.343784 
L 168.257213 218.62936 
L 168.803641 218.873916 
L 169.106532 219.13855 
L 169.310448 219.34053 
L 171.425874 222.109237 
L 171.828236 222.882197 
L 171.29358 223.581429 
L 171.13675 224.994256 
L 172.387934 226.439618 
L 173.117392 227.38929 
L 174.609463 229.293132 
L 175.935581 230.33159 
L 177.925003 229.812355 
L 179.417074 231.716198 
L 178.919888 233.446968 
L 178.753939 234.485429 
L 179.251463 235.870043 
L 179.91444 236.562176 
L 181.738246 237.77371 
L 182.732958 237.946785 
L 184.059239 237.600802 
L 185.219734 236.908492 
L 186.545849 236.042931 
L 187.374774 235.523699 
L 189.032792 235.523695 
L 190.358909 235.870019 
L 192.016763 236.908477 
L 192.680072 237.773687 
L 193.177265 239.331551 
L 193.177268 240.889069 
L 193.439376 241.428549 
L 193.795152 241.762241 
L 195.116629 242.994545 
L 196.031102 243.995793 
L 197.377944 245.253886 
L 198.47014 246.460402 
L 200.32528 248.206225 
L 201.459585 249.173895 
L 202.103165 250.260124 
L 202.584608 251.286815 
L 202.963596 252.493333 
L 203.214266 254.033543 
L 203.435099 257.267829 
L 203.356353 258.166271 
L 203.200517 259.347002 
L 202.333461 259.680523 
L 200.981649 260.373352 
L 199.119055 261.502509 
L 197.589024 262.11832 
L 196.824423 262.272187 
L 196.160951 262.682727 
L 195.725932 263.427131 
L 194.552174 264.196979 
L 193.813435 264.196808 
L 192.946876 264.37629 
L 192.054786 264.555773 
L 191.875906 265.304157 
L 190.605991 265.487275 
L 190.604997 265.90941 
L 190.65175 266.509986 
L 190.602015 267.045659 
L 190.375388 267.451525 
L 190.068686 267.71114 
L 189.793483 268.198179 
L 189.615099 268.701314 
L 189.468712 269.204449 
L 189.499383 269.788929 
L 189.30409 270.600487 
L 189.254024 271.249871 
L 189.172959 272.925428 
L 189.170806 273.778523 
L 188.509325 274.915986 
L 187.942176 275.958601 
L 187.372542 277.949159 
L 186.615073 279.844871 
L 186.044445 282.21464 
L 185.56964 283.920832 
L 185.37932 284.773928 
L 185.000337 285.816543 
L 184.619863 287.428062 
L 183.477945 292.451964 
L 183.263753 293.490079 
L 182.931687 294.197272 
L 182.435328 295.485137 
L 181.851767 296.693214 
L 180.899499 297.7746 
L 179.783599 298.190506 
L 178.471077 298.097912 
L 177.406902 298.406164 
L 176.681427 298.633416 
L 175.698652 298.649341 
L 174.779042 299.152477 
L 173.796433 299.087402 
L 173.232101 299.282115 
L 172.667768 299.460558 
L 172.18351 299.801347 
L 171.183163 300.401753 
L 170.941448 300.450561 
L 170.651159 300.547831 
L 169.651143 300.98589 
L 169.393181 301.083333 
L 168.50474 301.992161 
L 167.16702 302.21924 
L 166.554278 302.381415 
L 165.58659 302.787109 
L 164.89278 303.209071 
L 164.569334 303.744745 
L 164.327122 303.890822 
L 164.150561 303.920418 
L 163.427242 304.783381 
L 162.293105 304.847248 
L 161.486726 304.833231 
L 160.210842 304.542291 
L 159.106713 304.944178 
L 157.945389 305.602911 
L 156.426632 305.921202 
L 155.195179 306.241743 
L 152.185849 307.538094 
L 150.881617 308.067019 
L 149.913433 308.42979 
L 147.895828 309.443851 
L 146.454825 310.140835 
L 144.956791 311.030279 
L 144.12455 311.361723 
L 142.9241 311.867456 
L 141.26741 312.57067 
L 140.046902 313.849364 
L 139.722458 312.902115 
L 139.654982 312.041578 
L 139.659456 311.083944 
L 139.535281 310.062965 
L 139.3559 309.307658 
L 139.088818 308.681813 
L 138.443083 307.728508 
L 138.079846 307.16774 
L 137.653114 306.784376 
L 137.164712 307.093319 
L 136.516658 307.628647 
L 135.827822 308.027417 
L 134.94402 307.743746 
L 134.269108 307.538997 
L 133.573143 308.154979 
L 133.224665 309.42069 
L 132.802909 310.380921 
L 132.412653 311.18019 
L 132.655695 311.798074 
L 133.261974 312.952841 
L 133.964906 314.227549 
L 134.000386 315.160779 
L 133.602172 315.976144 
L 132.866087 316.592472 
L 132.414818 316.112704 
L 131.820644 315.995879 
L 131.011281 316.339265 
L 130.353611 316.456266 
L 130.071776 316.22469 
L 129.597962 316.147326 
L 129.35409 315.304096 
L 128.910779 314.77604 
L 128.698904 313.900272 
L 129.360052 312.600464 
L 129.80452 311.245619 
L 129.968645 310.061773 
L 129.337663 308.69793 
L 128.893191 307.904374 
L 128.407106 306.668434 
L 128.507736 305.661992 
L 128.488503 304.817205 
L 127.590943 305.169072 
L 127.347734 304.494765 
L 127.503736 303.270766 
L 127.930961 301.642459 
L 128.359347 300.295921 
L 128.659249 298.917883 
L 128.772646 298.45369 
L 129.111509 297.506787 
L 129.330342 295.920192 
L 129.782269 294.428615 
L 129.367637 293.015098 
L 128.657577 291.989792 
L 128.002888 290.755064 
L 128.760524 289.454564 
L 129.293853 288.268121 
L 130.11797 287.578754 
L 131.390535 286.628906 
L 131.571736 285.694291 
L 131.671371 284.470638 
L 131.941765 283.784907 
L 131.375274 282.50916 
L 131.47607 281.583198 
L 131.936784 280.260545 
L 131.358525 280.183873 
L 129.708466 281.047703 
L 128.763492 281.568839 
L 127.416487 281.939918 
L 127.013628 281.516054 
L 126.6426 281.003575 
L 126.467693 279.306903 
L 126.498528 278.96075 
L 126.742727 277.719961 
L 127.359945 277.498595 
L 127.974343 276.577306 
L 127.714888 275.838614 
L 126.65552 275.837578 
L 125.613727 276.254869 
L 124.960204 277.514523 
L 124.844986 278.891176 
L 124.880632 279.848464 
L 124.530827 280.727868 
L 123.494669 280.533505 
L 122.897177 279.56393 
L 121.953691 278.322971 
L 120.890342 277.267724 
L 120.550481 276.513629 
L 120.238469 274.632804 
L 119.247071 273.480634 
L 118.664996 272.333829 
L 118.532034 271.095637 
L 119.04895 269.828887 
L 119.110284 266.883466 
L 119.331937 266.085408 
L 118.878512 265.010083 
L 118.714051 263.940988 
L 118.493388 262.864277 
L 118.199282 261.458029 
L 117.512432 260.207377 
L 116.728264 258.667514 
L 115.980074 258.181689 
L 115.110363 257.414961 
L 114.110842 256.230598 
L 113.416863 255.221389 
L 113.076504 254.322428 
L 113.870283 254.140177 
L 114.180963 253.510523 
L 114.055461 252.111197 
L 113.760193 250.415391 
L 112.674299 249.746624 
L 111.661184 249.254396 
L 110.27787 248.49113 
L 108.966673 247.646864 
L 108.113209 246.936385 
L 106.823895 245.52062 
L 105.83598 245.32591 
L 105.09525 244.679124 
L 104.362146 243.935587 
L 103.72752 243.778954 
L 102.818684 243.237745 
L 102.117411 242.429651 
L 101.553077 241.725229 
L 100.159317 240.31829 
L 99.393553 239.414138 
L 99.985737 238.935407 
L 101.109761 239.088923 
L 102.49589 238.460132 
L 102.940191 237.073266 
L 102.934054 235.415709 
L 103.321822 233.940574 
L 103.304079 232.231267 
L 102.943494 231.006403 
L 103.21422 230.680499 
L 103.447808 228.959076 
L 103.859118 227.322806 
L 103.596676 225.803711 
L 103.438182 224.179385 
L 103.996711 223.30673 
L 104.368066 221.735191 
L 104.273897 220.134576 
L 103.987748 218.744423 
L 104.535997 217.244192 
L 104.718027 216.55898 
L 104.337548 215.692385 
L 103.051385 215.129715 
L 101.990525 214.718313 
L 101.682494 213.915583 
L 101.663754 211.293295 
L 101.995323 210.600987 
L 101.829701 209.389449 
L 101.663748 208.350815 
L 101.498126 207.485604 
L 101.903801 206.495257 
L 101.876278 205.554065 
L 101.829692 205.062527 
L 101.245297 204.434259 
L 101.217608 202.914817 
L 99.864966 202.807685 
L 99.388813 194.996206 
L 99.435233 195.025802 
L 99.476348 195.051763 
L 99.52111 195.114936 
L 99.603506 195.174821 
L 100.606673 195.688857 
L 101.521478 196.298778 
L 102.444239 196.948853 
L 103.015868 197.516025 
L 103.731399 198.076273 
L 104.782147 198.670963 
L 105.809187 199.201441 
L 106.852806 199.643304 
L 108.374385 200.241628 
L 109.275925 200.36901 
L 110.225212 200.545027 
L 111.269991 200.769852 
L 112.440933 201.244946 
L 113.594137 202.08177 
L 140.983703 211.734208 
L 146.627701 214.294004 
L 149.298669 215.456036 
L 154.764448 217.793081 
" clip-path="url(#p5267bd307b)" style="fill: #eaeaea"/>
    <path d="M 340.425475 357.358975 
L 340.459452 357.414275 
L 341.323361 358.282773 
L 312.27811 353.92545 
L 281.909239 354.036278 
L 261.767659 354.241414 
L 258.568502 354.25094 
L 256.06531 354.280022 
L 255.272691 354.299408 
L 249.744251 354.38665 
L 242.906937 354.39826 
L 236.706238 354.502464 
L 235.797569 354.551101 
L 234.531467 354.560795 
L 234.154637 354.550931 
L 233.739014 354.560624 
L 233.110688 354.560625 
L 232.231197 354.589704 
L 230.720562 354.558553 
L 227.36938 354.617406 
L 226.406831 354.634369 
L 222.081494 354.710186 
L 218.102483 354.780117 
L 217.135292 354.79708 
L 216.798582 354.803139 
L 215.723133 354.822006 
L 215.369679 354.828238 
L 214.474439 354.84399 
L 214.051024 354.851433 
L 213.629763 354.858703 
L 212.40544 354.88034 
L 212.121781 354.885187 
L 208.725505 354.938501 
L 207.984526 354.957975 
L 207.980798 355.02331 
L 201.958421 406.915168 
L 200.803889 405.139058 
L 199.80901 403.927523 
L 197.41391 403.350318 
L 196.659086 401.504284 
L 194.504045 402.023518 
L 192.183051 401.677543 
L 191.188172 400.811988 
L 190.359244 399.600453 
L 188.369986 399.081228 
L 187.375108 398.562173 
L 186.877752 398.562174 
L 186.380563 399.081232 
L 184.900264 397.724141 
L 183.946171 398.085527 
L 183.523088 398.680219 
L 183.140457 399.339815 
L 182.958924 400.047179 
L 182.401725 402.369869 
L 180.445292 401.885258 
L 179.826084 401.692971 
L 179.357408 401.053108 
L 179.209194 400.225283 
L 176.930807 399.77373 
L 176.93081 400.985267 
L 177.759738 402.196802 
L 177.714481 403.139723 
L 177.428171 403.754319 
L 177.262388 404.792952 
L 176.930819 405.831412 
L 177.428177 406.696622 
L 178.588677 408.427385 
L 179.749175 409.292939 
L 180.064002 409.654496 
L 180.246366 409.985072 
L 180.412318 410.677551 
L 180.578106 411.889087 
L 180.909678 412.927373 
L 180.412325 414.13891 
L 179.583233 414.138912 
L 178.754309 415.177373 
L 178.754311 416.042756 
L 177.759767 416.561988 
L 177.019038 416.57272 
L 176.93084 416.389086 
L 175.272823 416.735243 
L 174.112327 417.254302 
L 173.614974 418.119686 
L 173.614976 419.331222 
L 173.780929 420.196605 
L 174.278286 420.889083 
L 174.941428 421.581388 
L 174.941431 423.312155 
L 174.112339 423.312156 
L 172.786057 423.139082 
L 171.459941 423.139085 
L 169.967874 422.792935 
L 168.641425 422.273534 
L 167.812499 422.100633 
L 166.817953 421.754308 
L 165.823076 421.92756 
L 164.66258 422.100639 
L 162.839109 422.619699 
L 161.678613 422.965855 
L 160.186547 423.139108 
L 158.694315 423.485091 
L 156.870679 424.177401 
L 156.041754 424.523729 
L 155.378778 424.350481 
L 154.715636 423.485099 
L 154.383898 422.619717 
L 154.218277 421.927584 
L 153.720753 420.889125 
L 152.560254 419.677418 
L 151.731326 418.63896 
L 150.73678 418.119732 
L 149.244713 418.119735 
L 146.757271 417.842472 
L 145.928842 417.773589 
L 145.716801 416.61363 
L 145.912426 416.0044 
L 146.089483 415.274362 
L 146.1359 414.070961 
L 146.151649 413.31202 
L 145.901476 411.759696 
L 145.164557 410.1397 
L 145.25955 409.095529 
L 144.404428 408.053609 
L 144.21626 407.233054 
L 144.973232 405.501074 
L 145.622444 404.108845 
L 146.099239 402.673865 
L 146.367974 401.312098 
L 146.536741 400.085157 
L 146.513528 398.340891 
L 146.209476 397.462355 
L 144.934916 396.117032 
L 145.372421 395.043956 
L 145.393143 394.142573 
L 145.284883 393.097191 
L 144.920485 392.230597 
L 144.781058 391.410733 
L 144.703966 390.115774 
L 144.731981 388.989045 
L 144.453127 387.381682 
L 143.938359 384.922783 
L 143.353797 383.140268 
L 143.14822 381.789925 
L 142.846323 380.472293 
L 142.738063 379.410814 
L 142.911804 378.629199 
L 143.261775 377.773853 
L 143.155008 377.114778 
L 142.854769 376.247837 
L 142.479926 374.745533 
L 142.975954 374.315782 
L 143.525862 373.274206 
L 143.682858 372.307572 
L 143.511435 371.528208 
L 142.810327 370.752307 
L 142.158293 370.241559 
L 141.754273 369.495946 
L 141.630595 368.619659 
L 141.601912 367.36468 
L 142.128112 366.451873 
L 142.496653 366.272391 
L 142.752459 365.989064 
L 143.360724 365.526429 
L 143.776844 365.218005 
L 144.111397 364.53989 
L 144.614056 363.715698 
L 145.019565 362.691256 
L 145.185017 361.893546 
L 144.444619 361.303009 
L 144.065301 360.750203 
L 143.756939 359.842936 
L 143.487203 358.525131 
L 143.708027 357.453439 
L 144.706549 356.207804 
L 145.370849 355.736688 
L 146.483267 354.860225 
L 147.87669 354.070647 
L 148.956778 353.146069 
L 149.27326 351.912897 
L 149.78172 350.525513 
L 149.875388 349.800667 
L 150.190708 348.253707 
L 150.685078 347.389534 
L 152.004062 345.996783 
L 152.611332 345.284744 
L 152.216596 344.884938 
L 151.55959 345.1629 
L 150.612957 345.257575 
L 150.752379 343.904981 
L 151.069524 342.864789 
L 150.673296 342.070887 
L 150.870247 341.063753 
L 151.613958 340.374906 
L 152.534893 339.813616 
L 152.628892 339.177213 
L 152.279581 338.044946 
L 153.650458 337.665732 
L 154.644505 337.361461 
L 155.942934 336.862132 
L 156.559323 336.439651 
L 156.723945 335.37644 
L 156.705709 335.336286 
L 156.675204 335.294229 
L 156.602922 335.20821 
L 156.420389 333.61625 
L 155.831021 332.654464 
L 154.810114 332.218659 
L 154.261198 331.369373 
L 153.783071 330.149529 
L 153.280739 328.857339 
L 152.497405 329.731551 
L 151.561052 330.445841 
L 150.512462 331.168785 
L 149.181041 331.410922 
L 147.935496 330.992771 
L 146.674699 330.751678 
L 145.616161 330.991911 
L 144.23716 331.363163 
L 143.024938 331.266589 
L 142.027241 330.605265 
L 141.253852 329.829883 
L 140.65636 328.828116 
L 140.243221 327.824964 
L 140.616567 326.76833 
L 141.241411 326.450386 
L 142.106145 325.92977 
L 142.954135 325.183807 
L 143.5876 325.050883 
L 144.437249 324.739516 
L 144.09689 323.864787 
L 143.709283 323.199481 
L 143.007014 322.109791 
L 142.289494 321.269678 
L 141.45924 320.269296 
L 140.387933 319.222358 
L 139.437651 318.359572 
L 138.904981 317.566362 
L 138.725102 316.642306 
L 138.883758 316.150422 
L 139.001961 315.554172 
L 139.536949 314.850614 
L 140.046902 313.849364 
L 141.26741 312.57067 
L 142.9241 311.867456 
L 144.12455 311.361723 
L 144.956791 311.030279 
L 146.454825 310.140835 
L 147.895828 309.443851 
L 149.913433 308.42979 
L 150.881617 308.067019 
L 152.185849 307.538094 
L 155.195179 306.241743 
L 156.426632 305.921202 
L 157.945389 305.602911 
L 159.106713 304.944178 
L 160.210842 304.542291 
L 161.486726 304.833231 
L 162.293105 304.847248 
L 163.427242 304.783381 
L 164.150561 303.920418 
L 164.327122 303.890822 
L 164.569334 303.744745 
L 164.89278 303.209071 
L 165.58659 302.787109 
L 166.554278 302.381415 
L 167.16702 302.21924 
L 168.50474 301.992161 
L 169.393181 301.083333 
L 169.651143 300.98589 
L 170.651159 300.547831 
L 170.941448 300.450561 
L 171.183163 300.401753 
L 172.18351 299.801347 
L 172.667768 299.460558 
L 173.232101 299.282115 
L 173.796433 299.087402 
L 174.779042 299.152477 
L 175.698652 298.649341 
L 176.681427 298.633416 
L 177.406902 298.406164 
L 178.471077 298.097912 
L 179.783599 298.190506 
L 180.899499 297.7746 
L 181.851767 296.693214 
L 182.435328 295.485137 
L 182.931687 294.197272 
L 183.263753 293.490079 
L 183.477945 292.451964 
L 184.619863 287.428062 
L 185.000337 285.816543 
L 185.37932 284.773928 
L 185.56964 283.920832 
L 186.044445 282.21464 
L 186.615073 279.844871 
L 187.372542 277.949159 
L 187.942176 275.958601 
L 188.509325 274.915986 
L 189.170806 273.778523 
L 189.172959 272.925428 
L 189.254024 271.249871 
L 189.30409 270.600487 
L 189.499383 269.788929 
L 189.468712 269.204449 
L 189.615099 268.701314 
L 189.793483 268.198179 
L 190.068686 267.71114 
L 190.375388 267.451525 
L 190.602015 267.045659 
L 190.65175 266.509986 
L 190.604997 265.90941 
L 190.605991 265.487275 
L 191.875906 265.304157 
L 192.054786 264.555773 
L 192.946876 264.37629 
L 193.813435 264.196808 
L 194.552174 264.196979 
L 195.725932 263.427131 
L 196.160951 262.682727 
L 196.824423 262.272187 
L 197.589024 262.11832 
L 199.119055 261.502509 
L 200.981649 260.373352 
L 202.333461 259.680523 
L 203.200517 259.347002 
L 203.356353 258.166271 
L 203.435099 257.267829 
L 203.214266 254.033543 
L 202.963596 252.493333 
L 202.584608 251.286815 
L 202.103165 250.260124 
L 201.459585 249.173895 
L 200.32528 248.206225 
L 198.47014 246.460402 
L 197.377944 245.253886 
L 196.031102 243.995793 
L 195.116629 242.994545 
L 193.795152 241.762241 
L 193.439376 241.428549 
L 193.177268 240.889069 
L 193.177265 239.331551 
L 192.680072 237.773687 
L 192.016763 236.908477 
L 190.358909 235.870019 
L 189.032792 235.523695 
L 187.374774 235.523699 
L 186.545849 236.042931 
L 185.219734 236.908492 
L 184.059239 237.600802 
L 182.732958 237.946785 
L 181.738246 237.77371 
L 179.91444 236.562176 
L 179.251463 235.870043 
L 178.753939 234.485429 
L 178.919888 233.446968 
L 179.417074 231.716198 
L 177.925003 229.812355 
L 175.935581 230.33159 
L 174.609463 229.293132 
L 173.117392 227.38929 
L 172.387934 226.439618 
L 171.13675 224.994256 
L 171.29358 223.581429 
L 171.828236 222.882197 
L 171.425874 222.109237 
L 169.310448 219.34053 
L 169.106532 219.13855 
L 168.803641 218.873916 
L 168.257213 218.62936 
L 167.528752 218.343784 
L 166.940877 218.363516 
L 166.028893 218.342057 
L 165.461907 218.199096 
L 164.692829 217.933944 
L 164.65772 217.90659 
L 165.988606 217.870076 
L 187.92927 209.447934 
L 218.515328 212.405406 
L 224.854937 203.735105 
L 264.049806 165.618804 
L 293.030229 165.035127 
L 306.938588 150.649284 
L 307.306965 151.743303 
L 307.646993 152.587053 
L 308.250287 153.53136 
L 308.679507 154.311763 
L 309.262908 155.505647 
L 309.847469 156.61905 
L 310.227948 157.439088 
L 310.660981 158.501953 
L 310.889766 159.287549 
L 311.026873 160.305934 
L 311.224159 161.050857 
L 311.481293 161.546376 
L 312.342218 162.405528 
L 312.894615 162.994162 
L 313.493267 163.696334 
L 313.799971 164.095968 
L 314.293847 164.845044 
L 314.558938 165.340736 
L 315.059943 166.146408 
L 315.418704 166.812927 
L 315.704519 167.534831 
L 315.740165 168.374254 
L 315.796368 169.439889 
L 315.794877 170.069024 
L 315.75708 170.996024 
L 315.612352 172.099044 
L 315.617659 172.81714 
L 315.548859 173.663141 
L 315.460829 174.194314 
L 315.007573 175.026815 
L 314.691091 175.812759 
L 314.475572 176.834086 
L 314.340625 177.816298 
L 314.283928 178.396279 
L 314.320402 179.171318 
L 314.690768 180.136394 
L 315.620661 181.7467 
L 316.160958 183.1417 
L 316.444121 184.041007 
L 316.061658 185.49572 
L 315.826244 186.234413 
L 315.424549 187.366164 
L 315.104585 188.394068 
L 314.80551 189.099704 
L 314.313131 190.399513 
L 313.975261 191.01584 
L 313.71697 192.206091 
L 313.429833 193.595899 
L 313.270847 194.599573 
L 312.635395 195.920325 
L 312.189105 197.802191 
L 311.872791 200.140807 
L 311.036577 203.332867 
L 310.348241 205.562792 
L 310.67451 207.340983 
L 310.68678 208.162752 
L 311.128931 209.011867 
L 311.921387 209.970711 
L 312.714007 210.408594 
L 314.167282 211.10713 
L 315.064016 211.999513 
L 315.877693 213.307972 
L 315.881011 214.626299 
L 315.871399 216.164434 
L 315.780883 217.711742 
L 315.856484 218.980222 
L 315.663183 221.253068 
L 315.584437 222.499049 
L 315.165336 224.302685 
L 314.966065 225.623435 
L 314.552434 227.247762 
L 314.379522 228.698493 
L 314.222857 229.619955 
L 313.991258 230.941051 
L 313.645433 232.22286 
L 313.349509 233.585494 
L 313.314366 235.587648 
L 313.360126 237.027474 
L 313.682415 238.537223 
L 313.67247 239.505762 
L 313.413848 240.648243 
L 313.501717 242.201434 
L 313.724039 244.078626 
L 313.834786 245.533856 
L 314.095569 246.727047 
L 314.454994 248.0002 
L 315.08813 249.156352 
L 314.935444 250.338121 
L 314.462295 251.230853 
L 314.158247 252.585353 
L 314.309943 253.527583 
L 314.771491 254.588024 
L 315.337319 256.119234 
L 315.28626 257.592637 
L 314.742984 258.673503 
L 314.570074 260.677387 
L 314.709004 261.855694 
L 314.947572 263.179385 
L 315.668077 264.212133 
L 315.637739 264.896133 
L 316.997678 265.872457 
L 317.126329 266.896206 
L 317.040454 267.662244 
L 318.119552 268.820992 
L 319.57233 269.495123 
L 321.013835 270.502946 
L 321.709637 271.51181 
L 321.824529 272.698424 
L 322.185114 274.053096 
L 322.440427 275.425249 
L 323.337824 276.358304 
L 324.830223 276.421647 
L 325.744363 276.304818 
L 327.101149 276.516142 
L 328.253192 277.128832 
L 329.515815 278.098233 
L 330.276605 279.114366 
L 331.117138 280.039979 
L 331.484521 281.313131 
L 331.648651 282.539899 
L 332.486697 283.294686 
L 333.322255 283.349722 
L 334.392898 284.484066 
L 334.284974 285.9502 
L 333.785466 287.25018 
L 333.614378 288.285699 
L 333.229758 289.128584 
L 333.178697 289.511776 
L 321.660925 289.618713 
L 318.602173 290.377621 
L 322.92161 293.165922 
L 344.180234 303.871591 
L 344.983961 303.959512 
L 346.209777 304.083086 
L 347.449023 304.56441 
L 348.184944 304.994851 
L 349.265699 305.177099 
L 350.469797 304.934616 
L 351.706057 304.667383 
L 354.835931 311.959437 
L 354.041488 312.394391 
L 353.24771 312.981815 
L 352.903706 313.278989 
L 352.500352 313.905181 
L 352.23808 314.312258 
L 352.402707 315.571738 
L 352.27953 316.140468 
L 352.222169 316.517776 
L 351.526867 317.185507 
L 350.64224 318.750469 
L 349.296894 319.312106 
L 348.425527 319.582973 
L 347.506913 320.497339 
L 346.389521 321.121283 
L 345.594249 321.057765 
L 345.845081 320.485054 
L 345.858177 319.728016 
L 345.325508 319.335825 
L 344.409048 319.851423 
L 343.276571 320.548751 
L 342.498707 321.119733 
L 341.163972 321.843889 
L 339.814149 322.104372 
L 338.420059 321.559702 
L 337.929169 321.256473 
L 337.104386 320.84334 
L 336.23766 320.332938 
L 335.012838 319.729422 
L 334.173301 319.967404 
L 333.544644 320.202963 
L 333.09835 320.167656 
L 332.072139 319.838293 
L 331.661988 320.608139 
L 331.149713 321.59087 
L 330.450098 320.875199 
L 329.73606 320.273413 
L 328.665087 320.213184 
L 326.982865 320.461553 
L 326.383717 320.501361 
L 325.291027 320.612133 
L 324.505702 320.670634 
L 323.478663 320.837655 
L 322.798115 321.399291 
L 322.16233 321.716195 
L 321.726151 322.909561 
L 320.970669 323.8871 
L 320.361742 324.91985 
L 319.728445 325.936677 
L 318.908803 326.418524 
L 317.861703 326.317276 
L 316.698224 327.112739 
L 315.796189 328.051336 
L 315.321381 328.838317 
L 315.463957 329.154009 
L 315.984854 329.302162 
L 317.389884 328.935236 
L 319.084871 328.450791 
L 320.146725 327.909059 
L 321.319156 327.170538 
L 322.084254 326.290614 
L 322.56188 325.698864 
L 323.31504 324.725998 
L 324.111637 324.147228 
L 324.68658 324.031438 
L 325.13619 324.134245 
L 325.699197 324.082148 
L 326.588966 323.965492 
L 327.509904 324.304202 
L 327.306155 325.315836 
L 327.551187 325.988238 
L 328.182166 325.90741 
L 328.685489 325.404795 
L 329.422901 324.850774 
L 330.433693 324.691888 
L 331.340206 324.599636 
L 332.378188 324.627673 
L 332.843547 324.849902 
L 333.864288 325.3584 
L 334.12507 326.006226 
L 333.426452 326.991207 
L 333.180761 327.913706 
L 333.375891 328.497321 
L 333.750401 329.160031 
L 333.849044 329.801799 
L 334.301639 330.260106 
L 335.118297 330.119912 
L 335.851896 329.850603 
L 336.260889 330.097929 
L 336.999961 330.740042 
L 337.374471 331.402752 
L 337.314292 332.257925 
L 336.903644 332.995406 
L 336.067258 333.444888 
L 335.343109 333.803677 
L 334.676984 333.70589 
L 333.91205 333.503565 
L 333.089423 333.22872 
L 332.110626 332.825627 
L 331.179742 332.91009 
L 330.512126 333.251918 
L 330.423432 333.830687 
L 330.794957 334.290205 
L 331.276564 334.512088 
L 331.871402 334.73276 
L 332.451651 335.043085 
L 332.772777 335.38093 
L 333.161379 335.905179 
L 333.530252 336.177428 
L 334.369789 336.492772 
L 335.02033 336.631405 
L 335.7095 336.6475 
L 336.139712 336.691115 
L 336.66492 336.57896 
L 337.15813 335.946364 
L 337.34646 334.975576 
L 337.754787 334.091845 
L 338.339677 333.629037 
L 339.266747 333.284093 
L 340.217857 332.922707 
L 341.092042 332.846898 
L 342.323496 333.344664 
L 342.922645 333.850047 
L 343.222385 334.391776 
L 343.027257 334.890411 
L 342.453144 335.532181 
L 341.723192 336.053662 
L 340.765452 336.512837 
L 339.919119 336.832338 
L 338.831237 337.260532 
L 338.630141 337.91407 
L 339.314005 338.117261 
L 340.166142 338.180259 
L 340.569497 338.05322 
L 341.142782 337.908008 
L 341.917164 337.646314 
L 342.490947 337.53364 
L 343.020796 337.193543 
L 343.327499 337.645446 
L 343.446535 338.571752 
L 343.320706 339.378983 
L 343.342093 340.273789 
L 343.511693 340.776231 
L 343.151112 341.602673 
L 342.744607 342.071365 
L 342.250068 341.51579 
L 341.495415 342.005079 
L 340.820504 342.412157 
L 340.281868 342.711581 
L 340.056733 343.381561 
L 339.993736 344.049638 
L 339.528213 344.901695 
L 339.099493 345.509022 
L 338.694648 346.636964 
L 338.866071 347.261425 
L 338.891106 347.863386 
L 339.148903 348.299712 
L 339.544632 348.197249 
L 340.109296 348.011364 
L 340.702476 348.110017 
L 340.753042 348.792977 
L 340.109132 349.093613 
L 339.35597 349.14346 
L 338.648398 348.981116 
L 337.634124 348.91206 
L 336.838189 348.799735 
L 336.022526 349.004832 
L 335.281632 349.331256 
L 334.951721 350.043295 
L 335.462342 351.135581 
L 336.089176 351.315233 
L 336.870356 351.52552 
L 337.627332 351.727845 
L 337.515428 352.380172 
L 336.987901 352.88296 
L 336.274695 353.990307 
L 336.052876 354.879921 
L 336.803385 354.651112 
L 337.657013 354.282804 
L 338.317998 354.03063 
L 338.869234 354.040148 
L 339.435723 354.521646 
L 339.675947 355.413856 
L 339.69518 356.170374 
L 340.425475 357.358975 
" clip-path="url(#p5267bd307b)" style="fill: #eaeaea"/>
   </g>
  </g>
 </g>
 <defs>
  <clipPath id="p5267bd307b">
   <rect x="7.2" y="7.2" width="374.144022" height="554.4"/>
  </clipPath>
 </defs>
</svg>
