<svg width="233" height="65" viewBox="0 0 233 65" fill="none" xmlns="http://www.w3.org/2000/svg">
<path d="M29.4359 64.0794L28.7403 63.3716L29.5091 62.7004C31.7667 60.748 34.1706 59.0762 36.355 57.9535C38.0024 57.1115 38.0756 56.9895 36.9529 56.9895C35.8791 57.0017 34.9272 57.4532 32.2914 59.247C28.4475 61.8462 27.0929 62.3832 24.2985 62.4076C23.005 62.4076 22.5168 62.3588 21.687 62.1391C20.2471 61.7486 19.1122 61.2361 17.9651 60.4795C16.9401 59.7961 16.1225 59.0518 16.6106 59.247C20.3813 60.7236 23.2124 60.3453 29.1186 57.563C30.3633 56.9773 31.7911 56.4891 32.9625 56.2329C34.1096 55.9888 37.258 56.0254 38.6003 56.3061C39.6498 56.5136 39.784 56.5136 40.7358 56.3427C43.03 55.9034 45.2143 55.9766 47.3864 56.5624C48.0088 56.721 49.4609 57.2945 50.6202 57.8315C52.9998 58.9175 55.3061 59.7473 56.6851 59.9914C58.4423 60.2965 60.2849 60.1378 61.9811 59.5155C62.4326 59.3568 62.7987 59.247 62.7987 59.2958C62.7987 59.4301 61.432 60.4673 60.6632 60.9188C59.8212 61.4191 58.6985 61.8706 57.5515 62.1879C56.319 62.5296 53.5367 62.5052 52.2676 62.1391C50.8643 61.7364 49.4365 60.9676 46.8861 59.2592C45.6414 58.4172 44.4089 57.624 44.1404 57.4898C43.5791 57.1969 42.5297 57.0139 41.8829 57.0871C41.4192 57.1359 41.4192 57.1481 42.8591 57.8925C44.6896 58.8321 47.1912 60.5283 49.0094 62.0415C49.7782 62.6882 50.425 63.2496 50.4494 63.3106C50.4616 63.3594 50.1443 63.7255 49.7538 64.116L49.0216 64.836L46.8861 62.7493C45.7024 61.6022 44.1526 60.2232 43.4327 59.6863C42.1636 58.7223 40.1379 57.5996 39.6986 57.5996C39.4179 57.5996 38.0024 58.2464 37.2336 58.7223C35.7082 59.6863 34.1828 60.9676 31.7911 63.2984C30.9491 64.1282 30.2291 64.7993 30.2047 64.7993C30.1681 64.7993 29.8264 64.4821 29.4359 64.0794Z" fill="#3E73B0"/>
<path d="M57.8565 58.1365C54.9522 57.8558 51.0472 57.0627 49.3144 56.3793C48.9483 56.2329 48.9605 56.2329 49.9978 55.8912C52.1577 55.1834 54.5129 53.7679 56.026 52.2791C56.3677 51.9496 57.1975 51.0588 57.8931 50.3144C58.9548 49.1552 61.0659 47.3491 61.3587 47.3491C61.5662 47.3491 59.8578 50.8636 59.0402 52.1205C58.3568 53.1699 57.283 54.1828 56.1481 54.8417C55.2695 55.3664 55.0864 55.7203 55.7576 55.5983C56.685 55.4397 58.5154 55.281 60.9682 55.159C63.8237 55.0248 65.2637 54.7807 66.6426 54.2438C67.5456 53.8899 68.6439 53.3164 69.132 52.9381C69.5591 52.6086 69.5957 52.7672 69.2052 53.292C67.2528 55.8912 65.1905 57.3067 62.518 57.8558C61.4564 58.0633 58.8205 58.2341 57.8565 58.1365Z" fill="#3E73B0"/>
<path d="M17.709 58.0023C15.3538 57.685 13.4868 56.8064 11.8638 55.2932C11.1072 54.5733 9.66724 52.8526 9.75266 52.755C9.78927 52.7306 10.131 52.9015 10.5214 53.1577C11.937 54.0607 13.5844 54.6587 15.427 54.9149C15.9151 54.976 17.4771 55.098 18.9049 55.159C20.3326 55.2322 22.0044 55.3542 22.6268 55.4397C23.2491 55.5373 23.786 55.5739 23.8104 55.5373C23.9569 55.4031 23.8226 55.2688 23.1393 54.8539C21.199 53.6824 20.296 52.5598 18.795 49.4724C17.9286 47.703 17.7944 47.3491 17.9774 47.3491C18.2215 47.3491 20.0519 48.8867 21.0038 49.8995C23.2735 52.3035 24.323 53.2919 25.2748 53.9143C26.4585 54.7075 27.8618 55.3909 29.2163 55.8302C29.7655 56.0132 30.217 56.184 30.217 56.2085C30.217 56.2939 27.8008 57.0016 26.4463 57.3067C23.9691 57.8558 22.0288 58.0877 19.9665 58.0633C18.9293 58.0633 17.9164 58.0267 17.709 58.0023Z" fill="#3E73B0"/>
<path d="M103.264 56.6843C102.507 56.4159 102.178 56.123 101.787 55.342C101.433 54.6343 101.421 54.561 101.421 52.9014C101.421 51.3761 101.446 51.132 101.702 50.5829C102.288 49.3138 103.081 48.8135 104.533 48.8257C105.656 48.8257 106.376 49.1429 106.876 49.8629C107.327 50.4975 107.645 51.791 107.535 52.5231L107.449 53.0845H104.826H102.214V53.7068C102.214 54.5732 102.617 55.4519 103.178 55.7935C103.593 56.062 103.727 56.0742 105.424 56.0376L107.218 56.001V56.3061C107.218 56.5623 107.157 56.6111 106.644 56.6721C105.045 56.8552 103.727 56.8674 103.264 56.6843ZM106.729 52.0716C106.729 51.4127 106.363 50.3876 106.009 50.0215C105.35 49.3748 103.984 49.2772 103.166 49.8385C102.654 50.1924 102.3 50.9124 102.239 51.7666L102.19 52.4743H104.46H106.729V52.0716Z" fill="#3E73B0"/>
<path d="M110.573 56.7454C109.353 56.599 109.292 56.5746 109.292 56.1963V55.879L110.427 55.9766C112.087 56.1231 112.721 56.0864 113.258 55.818C114.137 55.3909 114.307 54.0974 113.563 53.5482C113.392 53.4262 112.819 53.2432 112.282 53.1333C110.708 52.8283 110.036 52.5964 109.622 52.2425C109.292 51.9374 109.243 51.8032 109.194 51.1199C109.146 50.0948 109.402 49.5945 110.219 49.1796C110.756 48.9111 110.952 48.8745 112.221 48.8745C112.99 48.8745 113.832 48.9233 114.088 48.9721C114.491 49.0576 114.539 49.1064 114.539 49.4481C114.539 49.7409 114.503 49.8019 114.332 49.7409C114.222 49.6921 113.514 49.6189 112.77 49.5823C111.232 49.4969 110.659 49.6311 110.268 50.1192C109.951 50.5341 109.939 51.3761 110.244 51.6568C110.537 51.9252 111.354 52.1937 112.343 52.3523C112.77 52.4134 113.429 52.6208 113.807 52.8039C114.381 53.0967 114.515 53.231 114.71 53.7069C114.881 54.134 114.918 54.4146 114.857 54.8295C114.613 56.4159 113.221 57.0383 110.573 56.7454Z" fill="#3E73B0"/>
<path d="M118.322 56.6844C117.2 56.3305 116.528 55.1957 116.406 53.4384C116.235 51.1321 117.004 49.4237 118.432 48.9478C119.079 48.7403 120.384 48.7891 120.958 49.0454C121.983 49.5091 122.593 50.7172 122.593 52.2425V53.0845H119.909H117.224V53.5727C117.224 54.1462 117.529 55.1224 117.822 55.4519C117.932 55.5739 118.249 55.7814 118.53 55.9156C118.981 56.1109 119.225 56.1353 120.702 56.0621L122.349 55.9766V56.2817C122.349 56.5746 122.3 56.599 121.654 56.6722C119.811 56.8553 118.859 56.8553 118.322 56.6844ZM121.739 51.852C121.739 51.0345 121.336 50.107 120.836 49.802C119.97 49.2772 118.786 49.3749 118.017 50.046C117.566 50.4487 117.224 51.3151 117.224 52.0717V52.4744H119.481H121.739V51.852Z" fill="#3E73B0"/>
<path d="M131.623 56.5991C130.757 56.1598 130.659 55.7205 130.647 52.3891V49.6679H130.037C129.439 49.6679 129.427 49.6557 129.427 49.3018C129.427 48.9479 129.439 48.9357 130.037 48.9357H130.647V47.7154V46.4951H131.074H131.501V47.7154V48.9357H132.783H134.064V49.3018V49.6679H132.783H131.501L131.513 52.3281C131.513 56.0134 131.611 56.2087 133.307 56.0622L134.186 55.989V56.3673C134.186 56.6846 134.137 56.7456 133.893 56.7456C133.747 56.7456 133.283 56.7822 132.892 56.8188C132.294 56.8798 132.087 56.8432 131.623 56.5991Z" fill="#3E73B0"/>
<path d="M149.427 56.7454C148.305 56.5502 147.853 56.1719 147.475 55.0858C147.145 54.1462 147.06 52.9015 147.231 51.6324C147.39 50.3999 147.719 49.7531 148.439 49.2406C148.976 48.8745 148.988 48.8745 150.611 48.8745C151.502 48.8867 152.259 48.9111 152.295 48.9355C152.32 48.9721 152.32 49.1308 152.283 49.3016L152.234 49.6067L150.867 49.5701C149.598 49.5335 149.464 49.5457 149.074 49.8141C148.829 49.9728 148.524 50.3511 148.354 50.6805C147.951 51.4859 147.865 53.1821 148.146 54.3048C148.549 55.8668 148.903 56.0864 150.941 56.0376L152.368 56.001V56.3061C152.368 56.5624 152.295 56.6234 151.978 56.6722C151.124 56.8064 149.964 56.8308 149.427 56.7454Z" fill="#3E73B0"/>
<path d="M155.285 56.7578C154.296 56.4405 153.772 55.5863 153.857 54.3904C153.943 52.9748 154.626 52.4379 156.603 52.2305C157.262 52.1572 158.031 52.0718 158.323 52.0352L158.836 51.9742V51.3641C158.836 50.6319 158.592 50.0095 158.214 49.7411C157.909 49.5336 156.371 49.4848 155.029 49.6556L154.321 49.7411V49.4116C154.321 49.0089 154.492 48.9601 156.469 48.8502C157.835 48.7892 157.994 48.8014 158.506 49.0455C158.921 49.2529 159.129 49.4482 159.312 49.8387C159.544 50.3146 159.568 50.5831 159.568 52.9504C159.568 55.5375 159.568 55.5375 159.873 55.8303C160.032 56.0012 160.276 56.1354 160.422 56.1354C160.679 56.1354 160.752 56.4283 160.569 56.7089C160.447 56.9042 159.641 56.7211 159.202 56.4039C158.921 56.1964 158.836 56.1842 158.519 56.3184C157.652 56.6845 155.822 56.9286 155.285 56.7578ZM157.75 55.8791L158.836 55.6229V54.1097V52.5843L158.445 52.6454C158.226 52.682 157.494 52.7674 156.822 52.8406C155.053 53.0237 154.626 53.4019 154.736 54.7321C154.785 55.3544 154.846 55.5131 155.163 55.7937C155.639 56.2208 156.225 56.2452 157.75 55.8791Z" fill="#3E73B0"/>
<path d="M163.778 56.6968C162.826 56.2697 162.619 55.4643 162.619 52.1451V49.6679H162.07C161.545 49.6679 161.521 49.6557 161.521 49.3018C161.521 48.9479 161.545 48.9357 162.07 48.9357H162.619V47.7154V46.4951H163.046H163.473V47.7154V48.9357H164.815H166.158V49.3018V49.6679H164.803H163.449L163.497 52.3891C163.534 54.1708 163.607 55.2324 163.705 55.4887C163.9 56.0012 164.388 56.1598 165.377 56.0622C166.133 55.9768 166.145 55.989 166.231 56.3063C166.267 56.4893 166.292 56.6602 166.267 56.6724C166.243 56.6968 165.755 56.7578 165.181 56.7944C164.425 56.8554 164.047 56.831 163.778 56.6968Z" fill="#3E73B0"/>
<path d="M172.979 56.7454C171.783 56.538 171.295 56.0742 170.905 54.7685C170.685 54.0486 170.648 53.6947 170.697 52.4866C170.746 51.1931 170.782 50.9734 171.1 50.3267C171.405 49.7165 171.576 49.5457 172.137 49.2406C172.747 48.9111 172.918 48.8745 173.906 48.8745C174.87 48.8745 175.09 48.9233 175.639 49.204C176.408 49.6189 176.591 49.8629 176.921 50.9246C177.409 52.5598 177.055 55.3543 176.249 56.1109C175.651 56.6722 174.175 56.9651 172.979 56.7454ZM175.322 55.8302C175.566 55.696 175.786 55.4275 175.957 55.0614C176.469 53.9021 176.347 50.888 175.761 50.168C175.261 49.5579 173.601 49.3626 172.65 49.7897C172.235 49.9728 172.064 50.1436 171.856 50.6073C171.624 51.1199 171.588 51.3883 171.6 52.8405C171.6 55.1224 171.881 55.7326 173.003 56.0254C173.589 56.1719 174.87 56.062 175.322 55.8302Z" fill="#3E73B0"/>
<path d="M92.208 51.2419V45.8726L94.7462 45.9092C97.199 45.9458 97.2966 45.958 97.8824 46.2631C98.6023 46.6413 99.1637 47.3247 99.542 48.2887C99.7616 48.8623 99.8226 49.3138 99.8715 50.6683C99.9569 53.3041 99.5786 54.7563 98.5657 55.7447C97.7603 56.5135 97.2966 56.6233 94.5632 56.6233H92.208V51.2419ZM97.2722 55.6593C98.5657 55.0614 99.1271 53.4506 99.005 50.6683C98.944 49.0575 98.7122 48.2033 98.163 47.5444C97.5285 46.7634 97.26 46.6902 95.0513 46.6413L93.0622 46.5925V51.2419V55.8912H94.9293C96.4668 55.8912 96.8695 55.8424 97.2722 55.6593Z" fill="#3E73B0"/>
<path d="M124.667 52.7794V48.9355H125.095C125.522 48.9355 125.522 48.9355 125.522 49.4846C125.522 49.7897 125.546 50.0338 125.583 50.0338C125.619 50.0338 125.851 49.8995 126.107 49.7531C126.571 49.448 128.084 48.8135 128.316 48.8135C128.389 48.8135 128.45 48.9965 128.45 49.2162C128.45 49.5945 128.414 49.6311 127.852 49.7775C127.511 49.8629 126.852 50.1192 126.388 50.3388L125.522 50.7537V53.6947V56.6234H125.095H124.667V52.7794Z" fill="#3E73B0"/>
<path d="M135.894 52.7795V48.9355H136.321H136.748V52.7795V56.6234H136.321H135.894V52.7795Z" fill="#3E73B0"/>
<path d="M139.555 53.1455V49.6677H139.006C138.481 49.6677 138.457 49.6555 138.457 49.3016C138.457 48.9477 138.481 48.9355 139.006 48.9355H139.555V47.8739C139.567 45.7628 140.3 45.0794 142.289 45.3235C142.911 45.4089 142.972 45.4455 142.972 45.7139C142.972 45.9946 142.936 46.0068 142.155 46.0068C140.739 46.0068 140.434 46.3485 140.324 47.9715L140.251 48.9355H141.496H142.728V49.3016V49.6677H141.508H140.287V53.1455V56.6234H139.921H139.555V53.1455Z" fill="#3E73B0"/>
<path d="M144.437 52.7795V48.9355H144.803H145.169V52.7795V56.6234H144.803H144.437V52.7795Z" fill="#3E73B0"/>
<path d="M167.988 52.7795V48.9355H168.354H168.72V52.7795V56.6234H168.354H167.988V52.7795Z" fill="#3E73B0"/>
<path d="M178.971 52.7795V48.9355H179.398C179.764 48.9355 179.825 48.9721 179.825 49.2284V49.5335L180.533 49.204C181.131 48.9233 181.387 48.8745 182.4 48.8745C183.486 48.8745 183.596 48.8989 183.998 49.204C184.767 49.7897 184.865 50.2778 184.926 53.6703L184.975 56.6234H184.535H184.096V54.0119C184.096 51.01 183.986 50.2901 183.449 49.8385C183.156 49.5945 182.973 49.5457 182.29 49.5457C181.777 49.5579 181.179 49.6555 180.679 49.8263L179.886 50.0948L179.849 53.3652L179.825 56.6234H179.398H178.971V52.7795Z" fill="#3E73B0"/>
<path d="M18.8684 53.7923C18.2948 53.6703 16.9037 53.4384 15.7566 53.2676C13.255 52.8893 12.1812 52.6086 10.851 51.9863C8.72773 50.9856 6.9339 49.4237 5.29871 47.1051C4.46891 45.9336 2.90693 43.0781 3.08997 43.0781C3.15099 43.0781 3.51708 43.4076 3.91977 43.8225C4.74957 44.6645 6.25054 45.8726 7.32439 46.5438C7.72709 46.8 9.20365 47.5688 10.6192 48.2644C12.9377 49.3993 14.817 50.5219 16.2813 51.6202C16.9403 52.1083 16.9403 51.9375 16.2936 51.3151C15.6224 50.6562 14.7072 49.4969 14.2435 48.7159C13.4503 47.3614 13.255 46.678 12.7059 43.3954C12.413 41.6382 12.1446 40.0518 12.0957 39.8444C12.0225 39.4905 12.0347 39.4905 12.5473 40.0396C13.914 41.4796 15.3173 44.1154 16.44 47.2882C17.4528 50.1802 18.307 51.9009 19.4419 53.2798C19.7348 53.6581 19.9666 53.9754 19.9422 53.9876C19.9178 53.9998 19.4419 53.9143 18.8684 53.7923Z" fill="#3E73B0"/>
<path d="M59.3331 53.9264C60.6998 52.2179 61.6883 50.4485 62.4815 48.2642C62.7255 47.593 63.0916 46.5802 63.2991 46.0067C63.7872 44.6887 64.7146 42.8217 65.3736 41.8332C66.0203 40.8814 67.082 39.5147 67.143 39.5757C67.2284 39.6489 66.0935 46.1775 65.8861 46.7998C65.4224 48.252 64.4827 49.7407 63.116 51.2295C62.7255 51.6444 62.4449 51.9861 62.4815 51.9861C62.5303 51.9861 62.9574 51.6932 63.4455 51.3271C64.8244 50.3021 66.3254 49.4235 69.1565 48.0323C72.0364 46.6168 73.3055 45.7748 75.0993 44.1152C75.8681 43.3952 76.1854 43.1512 76.1122 43.3586C75.6118 44.6643 73.9888 47.2514 72.7197 48.7401C72.3292 49.2038 71.5605 49.9482 71.0235 50.3875C69.0711 51.9739 67.0698 52.7793 64.0801 53.2064C62.335 53.4626 60.346 53.8165 59.565 54.0118C59.2599 54.085 59.2233 54.0728 59.3331 53.9264Z" fill="#3E73B0"/>
<path d="M36.9284 50.7537C32.3889 50.2411 27.825 48.3253 24.2374 45.4332C22.9805 44.4203 20.7839 42.114 19.9297 40.9181C17.538 37.5501 16.159 34.2675 15.4268 30.1429C15.1706 28.703 15.2194 23.9316 15.5001 22.394C16.7692 15.4506 20.4789 9.7152 26.1288 5.95669C27.581 4.99266 30.3266 3.66254 31.9496 3.12561C33.7191 2.53987 35.9034 2.11277 37.9291 1.95413C40.87 1.72227 44.3478 2.14938 47.2765 3.12561C48.9117 3.66254 51.6574 4.99266 53.0973 5.94449C57.8809 9.10505 61.4197 13.9008 63.0305 19.4287L63.3844 20.6368L63.1281 20.7955C60.4313 22.4185 57.3806 24.5296 52.9143 27.861C49.5097 30.3992 48.5212 31.2046 46.5199 33.035L45.1898 34.2553L43.1641 33.3279C42.0537 32.8154 41.0164 32.3394 40.8578 32.2784C40.6015 32.1686 40.87 31.9245 44.2136 29.2155C51.572 23.2849 54.6227 20.9907 56.0016 20.3318C57.0755 19.8314 59.0035 19.1969 59.8333 19.087C60.8096 18.965 60.8096 18.965 60.2482 17.6227C57.4416 10.9111 51.4377 5.94449 44.2502 4.41912C34.2926 2.28361 24.1153 7.18919 19.6125 16.2926C18.4288 18.6722 17.6356 21.3202 17.3427 23.8218C17.2573 24.6394 17.0254 24.5174 19.3318 24.8224C21.1256 25.0665 23.2001 25.579 24.8841 26.2136C27.0196 27.019 32.7184 29.7036 38.6124 32.6689C41.712 34.2309 44.7017 35.7075 45.263 35.9271C47.1423 36.7081 48.8995 36.8911 51.694 36.6105C52.3773 36.5373 52.9753 36.5128 53.0119 36.5495C53.1339 36.6593 51.2059 38.4775 50.3761 39.0389C48.4114 40.369 46.6542 40.9059 44.3112 40.9181C42.3953 40.9303 41.7608 40.7839 39.2104 39.7954C36.904 38.8924 36.2451 38.6728 33.8899 38.0016C31.5225 37.3304 30.1558 37.123 29.6555 37.3548C29.1185 37.6111 29.143 37.9772 29.7409 38.624C30.8148 39.7954 32.6818 40.9303 34.7075 41.6625C37.8314 42.7852 42.5296 42.8828 46.2637 41.9187C49.9368 40.9669 52.5116 39.2707 56.2823 35.317C58.9425 32.5347 61.0414 30.8507 63.1281 29.789L63.8969 29.4107L63.8237 29.8012C63.299 32.8764 62.6644 34.9265 61.4929 37.2816C60.7852 38.6972 59.8455 40.2103 58.9059 41.4306C58.1249 42.4679 56.0748 44.5546 54.9888 45.4332C51.3767 48.3497 46.8738 50.2289 42.2367 50.7659C40.9676 50.9001 38.2463 50.9001 36.9284 50.7537Z" fill="#3E73B0"/>
<path d="M11.0583 46.8975C10.4238 46.4704 9.19126 45.726 8.31265 45.2501C5.83545 43.8956 5.76224 43.859 4.96905 43.1878C2.39423 41.0401 0.41735 36.7935 0.12448 32.7543C0.0756681 32.1564 0.0756681 31.6927 0.112277 31.7293C0.148886 31.7659 0.319727 32.1808 0.502771 32.6445C1.21054 34.5237 2.24779 36.0735 3.82197 37.5867C6.0307 39.71 7.83674 41.5892 8.31265 42.2604C8.58112 42.6387 8.83738 42.956 8.87399 42.956C8.9228 42.956 8.82517 42.6387 8.67874 42.2604C8.30045 41.3086 8.00758 39.8442 8.00758 38.868C8.00758 38.209 8.71535 33.4011 9.08144 31.5462L9.17906 31.0581L9.56955 32.2784C10.2895 34.5481 10.5702 36.5128 10.5702 39.1975C10.5702 41.9187 10.9851 44.2373 11.8637 46.5436C12.0956 47.1416 12.2664 47.6419 12.2542 47.6541C12.2298 47.6663 11.6929 47.3246 11.0583 46.8975Z" fill="#3E73B0"/>
<path d="M66.9478 47.6663C66.9478 47.6175 67.021 47.4344 67.1186 47.2514C67.4237 46.6534 68.0338 44.6888 68.2901 43.4807C68.4731 42.6021 68.5707 41.4916 68.6562 39.3561C68.7904 35.744 68.9978 34.4261 69.7788 31.9977C70.0351 31.2045 70.2425 31.0947 70.2425 31.7659C70.2425 31.9855 70.4622 33.4499 70.7307 35.024C71.0357 36.8057 71.2188 38.2822 71.2188 38.929C71.2188 39.9784 70.9259 41.4916 70.5476 42.3946C70.4378 42.6509 70.3768 42.8827 70.4012 42.9071C70.4256 42.9437 70.6697 42.6753 70.9381 42.3214C71.9021 41.0523 72.976 39.893 74.3061 38.7215C76.5515 36.7324 77.8084 35.0606 78.6748 32.8763C78.8822 32.3516 79.0897 31.8879 79.1263 31.8513C79.2849 31.6926 78.9921 34.2431 78.7236 35.3535C77.967 38.4775 76.6369 40.9669 74.7332 42.7851C73.8424 43.6515 73.1835 44.0786 71.109 45.2013C69.8032 45.9091 69.1199 46.324 67.2284 47.5565C67.0698 47.6541 66.9478 47.7029 66.9478 47.6663Z" fill="#3E73B0"/>
<path d="M135.894 46.3118C135.894 45.7627 135.894 45.7627 136.321 45.7627C136.748 45.7627 136.748 45.7627 136.748 46.3118C136.748 46.861 136.748 46.861 136.321 46.861C135.894 46.861 135.894 46.861 135.894 46.3118Z" fill="#3E73B0"/>
<path d="M144.437 46.3118C144.437 45.7871 144.449 45.7627 144.803 45.7627C145.156 45.7627 145.169 45.7871 145.169 46.3118C145.169 46.8366 145.156 46.861 144.803 46.861C144.449 46.861 144.437 46.8366 144.437 46.3118Z" fill="#3E73B0"/>
<path d="M167.988 46.3118C167.988 45.7871 168 45.7627 168.354 45.7627C168.708 45.7627 168.72 45.7871 168.72 46.3118C168.72 46.8366 168.708 46.861 168.354 46.861C168 46.861 167.988 46.8366 167.988 46.3118Z" fill="#3E73B0"/>
<path d="M94.3797 40.1007C93.0252 39.7346 92.3785 38.8926 92.0246 37.0499C91.7073 35.3903 91.8293 32.7179 92.2808 31.3268C92.6713 30.1309 93.8062 29.3133 95.2218 29.1912C95.8807 29.1424 98.1016 29.3377 98.4921 29.4841C98.5654 29.5207 98.6142 29.6916 98.5776 29.8868C98.5288 30.2285 98.5288 30.2285 97.9674 30.1187C97.0278 29.9478 95.2462 29.9478 94.636 30.1187C93.1961 30.5458 92.7568 31.6562 92.769 34.8412C92.7812 37.5869 93.1351 38.6607 94.2211 39.2221C94.7458 39.4905 96.0393 39.5515 97.6745 39.3807L98.5532 39.2953V39.6492C98.5532 39.9908 98.5288 40.003 97.6379 40.1373C96.4543 40.3081 95.1119 40.2959 94.3797 40.1007Z" fill="#3E73B0"/>
<path d="M102.153 40.1618C101.604 40.0276 101.031 39.6981 100.811 39.393C100.701 39.2344 100.506 38.7463 100.372 38.2825C100.152 37.5992 100.128 37.2087 100.152 35.964C100.201 34.5973 100.225 34.4142 100.567 33.743C100.896 33.0963 101.018 32.9743 101.665 32.6448C102.629 32.1689 103.886 32.1445 104.874 32.5716C106.131 33.1329 106.546 34.0481 106.546 36.3057C106.546 38.612 106.022 39.7103 104.74 40.0886C104.106 40.2838 102.788 40.3082 102.153 40.1618ZM104.594 39.3686C105.106 39.149 105.375 38.7463 105.582 37.8554C105.973 36.2202 105.68 34.0725 104.996 33.499C104.277 32.8888 102.971 32.8034 101.982 33.3037C101.58 33.5112 101.458 33.6698 101.238 34.2556C101.006 34.8779 100.982 35.1464 101.018 36.4887C101.079 38.4046 101.287 38.9781 102.019 39.3076C102.629 39.5883 103.996 39.6127 104.594 39.3686Z" fill="#3E73B0"/>
<path d="M124.362 40.1126C123.276 39.6123 122.739 38.6116 122.63 36.9032C122.508 35.146 122.886 33.7793 123.703 32.9739C124.228 32.4614 124.79 32.2783 125.9 32.2783C126.718 32.2783 126.888 32.3149 127.425 32.6444C128.304 33.1935 128.731 34.0722 128.792 35.5243L128.841 36.6104H126.132H123.411L123.484 37.3425C123.557 38.2456 123.972 39.0021 124.545 39.3194C124.924 39.5269 125.168 39.5513 126.705 39.5025C128.426 39.4536 128.426 39.4536 128.487 39.7343C128.56 40.1248 128.414 40.1614 126.437 40.2224C125.143 40.2712 124.643 40.2346 124.362 40.1126ZM127.962 35.2924C127.962 34.4871 127.438 33.4742 126.864 33.1691C126.254 32.8397 124.997 32.9129 124.448 33.3034C123.935 33.6573 123.569 34.4016 123.484 35.2192L123.411 35.8782H125.693H127.962V35.2924Z" fill="#3E73B0"/>
<path d="M139.702 40.0274C138.921 39.5514 138.823 39.1121 138.823 35.915V33.0717H138.213C137.615 33.0717 137.603 33.0595 137.603 32.7056C137.603 32.3517 137.615 32.3395 138.213 32.3395H138.823V31.1192V29.8989H139.25H139.677V31.1192V32.3395H140.959H142.24V32.7056V33.0717H140.959H139.677L139.665 35.2438C139.641 38.0383 139.665 38.5386 139.86 39.0145C140.068 39.4904 140.361 39.5881 141.508 39.5148L142.362 39.466V39.7955C142.362 40.064 142.289 40.1372 141.984 40.1982C141.166 40.3568 140.117 40.2836 139.702 40.0274Z" fill="#3E73B0"/>
<path d="M148.353 40.1004C147.646 39.8685 147.182 39.3926 146.852 38.575C146.621 37.9893 146.584 37.6598 146.572 36.2443C146.572 34.6823 146.584 34.5603 146.926 33.8281C147.255 33.1203 147.328 33.0471 148.073 32.681C148.732 32.3515 149.012 32.2905 149.732 32.2783C150.684 32.2783 151.721 32.6566 152.234 33.2057C152.673 33.6817 152.978 34.902 152.978 36.2321C152.966 38.2211 152.576 39.3316 151.673 39.8685C151.221 40.137 150.953 40.1858 150.013 40.2224C149.256 40.259 148.707 40.2102 148.353 40.1004ZM151.099 39.2828C151.88 38.9167 152.063 38.331 152.063 36.3053C152.063 34.3162 151.88 33.7427 151.111 33.3034C150.379 32.8885 149.11 32.8885 148.366 33.3034C147.902 33.5718 147.816 33.6939 147.609 34.3894C147.182 35.7806 147.365 38.3188 147.951 38.9777C148.292 39.356 148.842 39.5269 149.732 39.5391C150.355 39.5391 150.721 39.4658 151.099 39.2828Z" fill="#3E73B0"/>
<path d="M167.732 39.9908C167 39.5026 166.902 39.0145 166.902 35.854L166.89 33.0717H166.341C165.816 33.0717 165.792 33.0595 165.792 32.7056C165.792 32.3517 165.816 32.3395 166.341 32.3395H166.89V31.1192V29.8989H167.317H167.744V31.1192V32.3395H169.025H170.307V32.7056V33.0717H169.013H167.72L167.768 35.976C167.793 37.5624 167.854 38.9535 167.915 39.0755C168.073 39.4172 168.659 39.5759 169.574 39.5148L170.429 39.466V39.7955C170.429 40.1982 170.209 40.2714 169.013 40.2714C168.305 40.2714 168.073 40.2226 167.732 39.9908Z" fill="#3E73B0"/>
<path d="M173.577 40.1005C172.796 39.8199 172.491 39.5392 172.174 38.8436C171.539 37.4525 171.515 35.195 172.125 33.7794C172.698 32.4249 174.822 31.8514 176.494 32.5835C177.689 33.1083 178.141 34.1089 178.141 36.2078C178.129 38.3189 177.726 39.4172 176.75 39.9175C176.091 40.2714 174.285 40.369 173.577 40.1005ZM176.359 39.2341C176.823 38.9657 176.921 38.8314 177.104 38.2213C177.397 37.2451 177.397 35.1828 177.104 34.3286C176.969 33.9381 176.75 33.5964 176.555 33.4621C175.371 32.6323 173.479 32.9008 172.955 33.9625C172.576 34.719 172.442 35.976 172.601 37.1718C172.857 39.0877 173.309 39.5392 174.932 39.5392C175.676 39.5392 175.932 39.4904 176.359 39.2341Z" fill="#3E73B0"/>
<path d="M186.171 40.1005C184.938 39.7711 184.279 39.0633 183.876 37.6233C183.718 37.0864 183.669 36.3786 183.669 34.7191C183.669 32.7544 183.693 32.4249 183.95 31.6073C184.194 30.8629 184.352 30.5945 184.816 30.1429C185.646 29.3376 186.439 29.1057 188.05 29.2155C188.733 29.2643 189.502 29.3376 189.77 29.3864C190.21 29.4718 190.259 29.5084 190.295 29.8867C190.32 30.1063 190.283 30.265 190.234 30.2284C190.173 30.1918 189.551 30.0941 188.855 30.0209C186.744 29.8135 185.487 30.1918 185.023 31.1802C184.621 32.0222 184.438 33.4866 184.511 35.2926C184.657 39.2097 185.573 39.9175 189.783 39.3318C190.32 39.2585 190.32 39.2707 190.32 39.6246C190.32 39.9907 190.307 40.0029 189.404 40.1372C188.221 40.308 186.878 40.2958 186.171 40.1005Z" fill="#3E73B0"/>
<path d="M193.712 40.1008C192.931 39.8201 192.626 39.5516 192.296 38.8317C191.991 38.1727 191.967 38.0385 191.967 36.3057C191.967 34.5118 191.979 34.463 192.333 33.743C192.662 33.0963 192.784 32.9743 193.431 32.6448C194.395 32.1689 195.652 32.1445 196.641 32.5716C197.91 33.1329 198.312 34.0481 198.3 36.3057C198.288 38.612 197.775 39.7103 196.494 40.0886C195.75 40.3082 194.322 40.3204 193.712 40.1008ZM196.628 39.2222C197.226 38.7707 197.446 37.9775 197.458 36.2447C197.458 34.8535 197.434 34.6705 197.153 34.1091C196.75 33.3159 196.189 33.0109 195.079 33.0109C193.944 33.0109 193.285 33.4014 192.992 34.2312C192.687 35.061 192.687 37.3673 192.98 38.3191C193.163 38.9171 193.248 39.0269 193.736 39.271C194.481 39.6493 196.091 39.6249 196.628 39.2222Z" fill="#3E73B0"/>
<path d="M213.298 40.1862L212.773 40.1373V34.524V28.9229H213.2H213.627V30.8753C213.627 31.9492 213.639 32.8278 213.664 32.8278C213.676 32.8278 213.993 32.7058 214.359 32.5715C214.847 32.3763 215.323 32.3031 216.08 32.2909C217.032 32.2787 217.166 32.3153 217.642 32.6203C218.521 33.1939 218.96 34.6704 218.85 36.6473C218.691 39.3686 217.691 40.296 214.982 40.2472C214.335 40.235 213.578 40.2106 213.298 40.1862ZM216.922 39.2343C217.178 39.0757 217.459 38.7706 217.618 38.4411C218.154 37.3429 218.106 34.646 217.52 33.6942C217.044 32.9132 215.897 32.7668 214.274 33.2793L213.627 33.4867V36.4399C213.627 38.6852 213.664 39.4174 213.786 39.4662C213.859 39.5028 214.506 39.515 215.214 39.5028C216.239 39.4784 216.58 39.4296 216.922 39.2343Z" fill="#3E73B0"/>
<path d="M221.498 40.1128C220.461 39.6247 220.021 38.075 220.595 36.9035C220.973 36.0981 221.693 35.8052 223.731 35.6222L225.342 35.4757V34.89C225.342 34.0114 225.049 33.3768 224.524 33.1328C224.085 32.9253 222.962 32.9253 221.339 33.1572C220.815 33.2182 220.802 33.2182 220.851 32.8765C220.888 32.5714 220.949 32.5104 221.437 32.425C221.742 32.3762 222.596 32.3152 223.328 32.303C224.89 32.2786 225.33 32.4494 225.793 33.267C226.05 33.7185 226.074 33.8771 226.074 36.2689C226.074 37.6601 226.123 38.9292 226.184 39.0878C226.257 39.283 226.465 39.4417 226.745 39.5393C227.099 39.6491 227.172 39.7346 227.148 39.942C227.099 40.3325 226.611 40.3447 225.928 39.9786L225.366 39.6857L224.585 39.9298C223.585 40.2471 221.998 40.3325 221.498 40.1128ZM224.768 39.2342L225.342 39.0268V37.5746V36.1225H225.012C224.219 36.1469 222.084 36.452 221.84 36.5862C221.034 37.0255 220.985 38.9292 221.766 39.4051C222.072 39.6003 224.036 39.4905 224.768 39.2342Z" fill="#3E73B0"/>
<path d="M229.955 40.003C229.21 39.5759 229.125 39.1243 229.125 35.854V33.0717H228.515C227.917 33.0717 227.905 33.0595 227.905 32.7056C227.905 32.3517 227.917 32.3395 228.515 32.3395H229.125V31.1192V29.8989H229.552H229.979V31.1192V32.3395H231.26H232.542V32.7056V33.0717H231.26H229.979L229.955 35.1218C229.918 37.7454 229.967 38.5386 230.162 39.0145C230.37 39.4904 230.662 39.5881 231.809 39.5148L232.664 39.466V39.7955C232.664 40.064 232.59 40.1372 232.285 40.1982C231.456 40.3568 230.418 40.2714 229.955 40.003Z" fill="#3E73B0"/>
<path d="M108.194 36.2445V32.3396H108.621C108.999 32.3396 109.048 32.3762 109.048 32.6447C109.048 33.0107 109.06 33.0107 109.646 32.7179C110.305 32.3762 111.574 32.1687 112.282 32.2786C112.745 32.3396 112.989 32.4616 113.331 32.8155C114.027 33.4989 114.088 33.8771 114.136 37.1963L114.185 40.1495H113.758H113.319V37.3794C113.307 34.1212 113.197 33.5721 112.465 33.1694C111.928 32.8643 110.768 32.9375 109.743 33.3158L109.048 33.5721V36.8669V40.1495H108.621H108.194V36.2445Z" fill="#3E73B0"/>
<path d="M117.529 40.0031C117.492 39.9177 117.053 38.4167 116.553 36.6717C116.04 34.9267 115.552 33.2427 115.455 32.9254L115.284 32.3397H115.735H116.199L117.175 35.8541L118.139 39.3564L118.517 39.393L118.896 39.4296L119.823 36.2202C120.336 34.4508 120.787 32.8644 120.824 32.6814C120.897 32.3885 120.97 32.3397 121.336 32.3397C121.849 32.3397 121.947 31.8272 120.568 36.5253C120.006 38.4534 119.543 40.0641 119.543 40.0885C119.543 40.1252 119.103 40.1496 118.566 40.1496C117.895 40.1496 117.566 40.1007 117.529 40.0031Z" fill="#3E73B0"/>
<path d="M130.403 36.2444V32.3395H130.83C131.208 32.3395 131.257 32.3761 131.257 32.6446C131.257 33.0106 131.269 33.0106 131.843 32.7178C132.465 32.4005 133.698 32.1686 134.369 32.2419C134.674 32.2785 135.113 32.4371 135.345 32.5957C136.212 33.1815 136.37 33.9625 136.383 37.4403V40.1494H135.955H135.528V37.3793C135.516 34.1211 135.406 33.572 134.674 33.1693C134.125 32.8642 132.978 32.9374 131.965 33.3279L131.257 33.5964V36.8668V40.1494H130.83H130.403V36.2444Z" fill="#3E73B0"/>
<path d="M144.07 36.2443V32.3394H144.497H144.925V36.2443V40.1492H144.497H144.07V36.2443Z" fill="#3E73B0"/>
<path d="M154.443 36.2443V32.3394H154.87C155.248 32.3394 155.297 32.376 155.297 32.6567C155.297 32.9129 155.334 32.9617 155.517 32.8885C156.774 32.3516 157.005 32.3028 157.933 32.2906C158.812 32.2784 158.97 32.315 159.422 32.6078C159.849 32.9007 159.959 33.0593 160.178 33.7549C160.398 34.4627 160.422 34.8898 160.422 37.3548V40.1493H159.995H159.556L159.58 37.55C159.605 33.8647 159.422 33.218 158.25 32.9983C157.75 32.9007 156.578 33.096 155.822 33.3888L155.297 33.5963V36.8789V40.1493H154.87H154.443V36.2443Z" fill="#3E73B0"/>
<path d="M200.082 36.2445V32.3396H200.509C200.887 32.3396 200.936 32.3762 200.936 32.6446C200.936 32.8155 200.96 32.9497 200.985 32.9497C201.009 32.9497 201.326 32.8155 201.68 32.6568C202.474 32.2785 203.682 32.1321 204.28 32.3396C204.524 32.4128 204.89 32.6202 205.085 32.7789L205.439 33.0839L205.927 32.8277C206.525 32.5226 207.782 32.2175 208.441 32.2175C208.721 32.2175 209.173 32.3396 209.478 32.4982C210.613 33.0717 210.82 33.8405 210.82 37.4892V40.1494H210.393H209.966V37.3794C209.954 34.1212 209.844 33.5721 209.112 33.1694C208.563 32.8643 207.404 32.9375 206.391 33.328C205.72 33.5843 205.683 33.6209 205.756 33.9137C205.805 34.0846 205.878 35.5611 205.903 37.1963L205.964 40.1494H205.536H205.109L205.061 37.1963C205.012 33.8039 204.951 33.511 204.17 33.1327C203.596 32.8643 202.644 32.9375 201.619 33.3158L200.936 33.5721V36.8668V40.1494H200.509H200.082V36.2445Z" fill="#3E73B0"/>
<path d="M5.68896 37.6234C3.57785 35.4025 1.67419 32.4738 0.942014 30.2895C0.319665 28.459 0.161026 25.5669 0.514912 22.8091C0.795579 20.6491 0.832188 20.6247 1.22268 22.1623C1.63758 23.7609 2.05248 24.908 3.00431 27.0923C3.68768 28.6665 4.188 30.204 4.68832 32.2175C4.96898 33.3646 5.24965 33.4744 5.28626 32.4616C5.37168 29.7891 5.74997 28.7641 8.23937 24.5297C8.84952 23.4924 9.37424 22.5894 9.39865 22.5162C9.42306 22.4552 9.48407 22.4308 9.53288 22.4796C9.66711 22.6138 9.38645 25.7866 9.10578 27.2753C8.95934 28.0197 8.49563 29.6671 8.06853 30.9362C7.15331 33.6575 6.90925 34.8656 6.79942 37.0865L6.72621 38.7217L5.68896 37.6234Z" fill="#3E73B0"/>
<path d="M72.4024 36.8912C72.317 34.8167 72.0119 33.3157 71.2309 31.1436C70.2425 28.3736 69.6811 25.4326 69.7788 23.4314L69.8154 22.5161L71.0357 24.5906C73.2932 28.4346 73.8179 29.7647 73.9766 32.0588C74.0376 32.8276 74.1108 33.1937 74.2084 33.1937C74.2939 33.1937 74.3915 33.0107 74.4403 32.8032C74.7088 31.4121 75.5019 28.8861 76.0633 27.5804C77.0273 25.3716 77.6008 23.7975 77.9913 22.3087C78.1744 21.5887 78.3696 21.0274 78.4184 21.0518C78.4673 21.0884 78.6015 21.845 78.7235 22.748C79.0042 24.9323 78.931 28.0075 78.5527 29.5206C78.1012 31.3145 76.8443 33.633 75.1359 35.8418C74.2328 37.001 72.7197 38.685 72.5732 38.685C72.5122 38.685 72.439 37.8796 72.4024 36.8912Z" fill="#3E73B0"/>
<path d="M49.3756 35.3172C49.2048 35.2928 48.558 35.1829 47.9479 35.0731C47.3255 34.9633 46.813 34.8413 46.813 34.7924C46.813 34.6216 51.7064 30.5458 54.4398 28.4225C56.1726 27.0802 58.8817 25.1521 60.3582 24.2003C61.6152 23.3949 63.6408 22.2722 63.7019 22.3454C63.8117 22.4675 64.0191 24.8837 64.0191 25.9819V27.2022L63.6286 27.4097C62.1277 28.1785 59.0403 30.5946 56.0628 33.3403C54.4032 34.8657 54.391 34.8779 53.5002 35.0853C52.646 35.2806 50.0102 35.427 49.3756 35.3172Z" fill="#3E73B0"/>
<path d="M37.2093 30.5457L35.3545 29.6183L36.1111 29.0204C37.2459 28.1418 42.7495 24.2246 44.5555 23.0043C47.0449 21.3325 49.3513 20.2953 51.6088 19.8438C52.7803 19.6119 54.3789 19.4655 54.3789 19.6119C54.3789 19.6607 54.0006 19.9536 53.5369 20.2343C51.5234 21.479 48.8753 23.5168 44.287 27.373C41.5902 29.6305 39.3082 31.4854 39.2228 31.4732C39.1374 31.4732 38.2344 31.0461 37.2093 30.5457Z" fill="#3E73B0"/>
<path d="M144.07 29.7769C144.07 29.301 144.083 29.2888 144.497 29.2888C144.912 29.2888 144.925 29.301 144.925 29.7769C144.925 30.2529 144.912 30.2651 144.497 30.2651C144.083 30.2651 144.07 30.2529 144.07 29.7769Z" fill="#3E73B0"/>
<path d="M33.0846 28.032C32.6575 27.8002 32.3646 27.5683 32.3768 27.4585C32.3768 27.3609 32.5599 26.6409 32.7551 25.8721C33.2188 24.1271 33.3897 22.9556 33.4995 20.9421L33.5727 19.3679L34.4147 19.014L35.2567 18.6724L35.1835 20.9055C35.1469 22.1258 35.0371 23.6268 34.9272 24.2247C34.6954 25.4938 34.1707 27.5805 33.9632 28.0808L33.8168 28.4225L33.0846 28.032Z" fill="#3E73B0"/>
<path d="M73.8667 26.9213C72.9637 25.1153 71.841 23.2726 70.6451 21.5764C69.4248 19.8558 68.7903 18.721 68.2412 17.3542C67.8385 16.3292 67.4724 14.9258 67.5944 14.816C67.6188 14.7794 67.8629 15.0479 68.1313 15.4018C68.8391 16.317 69.4248 16.9149 70.6207 17.9156C72.0241 19.087 73.0125 20.3928 73.6105 21.8449C73.7569 22.211 73.9643 22.5283 74.062 22.5527C74.2084 22.5771 74.245 22.1622 74.306 19.868C74.3426 18.3671 74.4647 16.4634 74.5745 15.6214C74.7941 13.9984 74.7575 12.6927 74.4647 11.4358C74.3792 11.0575 74.3304 10.7402 74.3792 10.7402C74.5501 10.7402 75.746 12.6805 76.0754 13.4981C77.0395 15.8411 77.3079 18.7454 76.7588 20.9175C76.6612 21.3324 76.2219 22.7113 75.7948 23.9804C75.3677 25.2617 74.9284 26.7383 74.8185 27.2752C74.7087 27.8121 74.6111 28.2514 74.5989 28.2759C74.5867 28.2881 74.2572 27.6779 73.8667 26.9213Z" fill="#3E73B0"/>
<path d="M4.46877 27.3727C4.38335 26.909 3.91964 25.3348 3.43152 23.8583C2.34546 20.5879 2.22343 20.0754 2.23563 18.367C2.23563 15.8654 2.89459 13.5468 4.13929 11.692C4.52978 11.094 4.88367 10.6181 4.89587 10.6425C4.92028 10.6669 4.88367 10.9354 4.82265 11.2282C4.50538 12.595 4.48097 13.7054 4.72503 16.0118C4.84706 17.2809 4.98129 19.2578 5.0057 20.4048C5.06671 22.7722 5.15213 22.9675 5.65245 21.7838C6.33582 20.1608 7.11681 19.209 9.52078 17.0368C10.1065 16.4999 10.8265 15.7677 11.095 15.4016C11.7173 14.584 11.7905 14.7427 11.4244 16.0606C10.9363 17.8422 10.0821 19.514 8.66658 21.4299C7.76356 22.6624 6.53106 24.6759 5.54263 26.5673C5.07891 27.4581 4.67622 28.1903 4.65181 28.1903C4.63961 28.1903 4.55419 27.8242 4.46877 27.3727Z" fill="#3E73B0"/>
<path d="M31.718 21.845C28.9601 20.344 27.1419 17.6838 26.8002 14.6331C26.6904 13.6934 26.7636 12.1193 26.91 12.0338C26.9954 11.9728 29.0211 13.6568 30.0218 14.6209C31.2055 15.7801 31.9498 17.0492 32.2305 18.416C32.4502 19.4776 32.5844 21.5887 32.4502 21.9304L32.3525 22.1989L31.718 21.845Z" fill="#3E73B0"/>
<path d="M94.9292 20.6857C93.5869 20.3075 93.0256 19.8926 92.4764 18.8553L92.1469 18.2452L92.1103 13.5836L92.0737 8.90991H93.2452H94.4045V13.1443V17.3665L94.7096 17.8913C95.515 19.2702 97.6261 19.2214 98.4193 17.8059C98.6633 17.3787 98.6755 17.1713 98.6755 13.1321V8.90991H99.8348H101.006L100.97 13.5836L100.933 18.2452L100.604 18.8675C99.9202 20.1732 98.7853 20.7468 96.7841 20.82C95.9543 20.8566 95.3563 20.8078 94.9292 20.6857Z" fill="#3E73B0"/>
<path d="M118.139 20.6979C117.077 20.222 116.858 19.4777 116.858 16.3537V13.9131H116.309H115.76V12.9979V12.0827H116.309H116.858V10.8624V9.64209H117.956H119.054V10.8624V12.0827H120.153H121.251V12.9979V13.9131H120.153H119.054V16.1707C119.054 18.8919 119.067 18.9163 120.323 18.9163H121.117L121.19 19.5753C121.312 20.4783 121.251 20.6735 120.824 20.759C120.153 20.9054 118.517 20.8688 118.139 20.6979Z" fill="#3E73B0"/>
<path d="M124.729 20.7099C123.874 20.3683 123.435 19.99 123.081 19.27C122.557 18.2327 122.398 17.1345 122.557 15.6945C122.776 13.8153 123.374 12.7658 124.533 12.2167C125.119 11.9482 125.375 11.8994 126.376 11.8994C127.328 11.8994 127.645 11.9482 128.182 12.1923C128.975 12.5462 129.622 13.2661 129.854 14.0837C130.037 14.7061 130.098 16.0606 129.964 16.8782L129.878 17.3297H127.34H124.79V17.708C124.79 17.9765 124.912 18.2083 125.217 18.5134L125.644 18.9405L127.718 18.9039L129.793 18.8551V19.6605V20.4537L129.036 20.6123C127.926 20.832 125.18 20.9052 124.729 20.7099ZM127.84 15.2064C127.84 14.218 127.303 13.6688 126.315 13.6688C125.412 13.6688 124.79 14.2912 124.79 15.1942V15.6213H126.315H127.84V15.2064Z" fill="#3E73B0"/>
<path d="M133.271 20.6371C132.063 20.0879 131.453 18.6846 131.453 16.4148C131.453 14.2061 132.002 12.937 133.222 12.2658C133.796 11.9486 134.003 11.8998 134.857 11.8998C135.394 11.8998 136.09 11.9364 136.419 11.9852L136.993 12.0828V10.3134V8.54395H138.091H139.189V14.6454V20.7469H138.091C137.2 20.7469 136.993 20.7103 136.993 20.5638C136.993 20.332 136.956 20.332 136.139 20.6249C135.26 20.9299 133.93 20.9421 133.271 20.6371ZM136.383 18.7822L136.993 18.648V16.2928V13.9498L136.541 13.8644C136.285 13.8278 135.772 13.7912 135.394 13.7912C134.125 13.7912 133.759 14.3892 133.759 16.4759C133.759 18.6968 134.357 19.2215 136.383 18.7822Z" fill="#3E73B0"/>
<path d="M158.348 20.7344C157.945 20.5757 157.396 20.0388 157.164 19.6117C157.067 19.4165 156.957 18.8795 156.92 18.4158C156.798 17.0369 157.286 16.1827 158.409 15.7434C158.616 15.658 159.458 15.5359 160.3 15.4505C161.74 15.3163 161.826 15.3041 161.862 15.0356C161.923 14.5963 161.655 13.9374 161.362 13.8397C161.069 13.7421 158.055 13.7665 157.713 13.8641C157.518 13.9251 157.494 13.8397 157.494 13.132V12.3388L157.957 12.2167C159.739 11.753 161.838 11.7408 162.729 12.2045C163.912 12.8025 164.083 13.3394 164.083 16.439C164.083 18.7331 164.095 18.8185 164.364 19.0748C164.596 19.3066 164.632 19.4531 164.596 20.1242L164.559 20.9052L163.803 20.8442C163.375 20.8076 162.826 20.6734 162.558 20.5391L162.082 20.2951L161.533 20.5391C160.886 20.8198 158.848 20.954 158.348 20.7344ZM161.521 18.9162C161.814 18.8429 161.826 18.7941 161.862 17.8423L161.899 16.8294L160.886 16.9149C159.776 17.0003 159.373 17.1711 159.19 17.647C159.031 18.0986 159.263 18.9039 159.605 19.0382C159.873 19.148 160.898 19.087 161.521 18.9162Z" fill="#3E73B0"/>
<path d="M167.805 20.5881C167.463 20.4051 167.219 20.1366 167.012 19.7095C166.719 19.1238 166.707 18.9895 166.67 16.5123L166.633 13.9131H166.145H165.669V12.9979V12.0827H166.158H166.646V10.8624V9.64209H167.744H168.83L168.867 10.838L168.903 12.0217L169.977 12.0583L171.039 12.0949V12.9979V13.9131H169.928H168.818L168.867 16.2317C168.891 17.9157 168.952 18.5868 169.062 18.6967C169.147 18.7821 169.611 18.8797 170.099 18.9163L170.978 18.9773V19.8315C170.978 20.6735 170.978 20.6857 170.612 20.759C170.416 20.8078 169.806 20.8444 169.269 20.8566C168.476 20.8566 168.208 20.82 167.805 20.5881Z" fill="#3E73B0"/>
<path d="M178.849 20.6245C177.958 20.3194 177.153 19.4652 176.823 18.4768C176.469 17.3785 176.494 15.0844 176.884 14.1203C177.262 13.1563 177.628 12.7658 178.58 12.3021C179.325 11.936 179.495 11.8994 180.496 11.8994C182.266 11.9116 183.376 12.534 184.023 13.9007C184.389 14.6695 184.401 14.7793 184.401 16.2315C184.401 18.2571 184.194 18.9405 183.327 19.8313C182.839 20.3316 182.534 20.5269 182.034 20.6733C181.131 20.9418 179.691 20.9174 178.849 20.6245ZM181.509 18.6964C181.973 18.3548 182.205 17.5616 182.205 16.2925C182.205 14.5475 181.655 13.7543 180.484 13.7543C179.898 13.7543 179.447 13.9983 179.129 14.4864C178.812 14.9624 178.812 17.6958 179.117 18.2571C179.544 19.0381 180.728 19.2456 181.509 18.6964Z" fill="#3E73B0"/>
<path d="M196.909 20.7955C196.738 20.7588 196.311 20.6856 195.969 20.6124L195.323 20.4904V19.563V18.6355L195.786 18.721C196.03 18.7576 196.897 18.8186 197.702 18.8674C199.423 18.9406 199.752 18.843 199.813 18.2084C199.85 17.8545 199.801 17.7935 199.447 17.6471C199.228 17.5495 198.556 17.3908 197.959 17.2688C195.86 16.8783 195.201 16.256 195.201 14.633C195.201 13.4005 195.652 12.7293 196.848 12.1802C197.385 11.9361 197.617 11.8995 198.801 11.9239C199.545 11.9483 200.497 12.0215 200.936 12.107L201.729 12.2656L201.766 13.2052C201.79 13.9374 201.766 14.1449 201.644 14.096C201.266 13.9618 198.495 13.8154 198.068 13.913C197.556 14.0228 197.397 14.1937 197.397 14.6208C197.397 14.9747 197.824 15.1577 199.276 15.4384C201.4 15.8289 202.034 16.4512 202.034 18.123C202.034 19.0382 201.9 19.4531 201.449 19.929C200.777 20.6368 200.289 20.7955 198.679 20.8199C197.873 20.8321 197.08 20.8199 196.909 20.7955Z" fill="#3E73B0"/>
<path d="M102.702 16.4145V12.0825H103.801C104.801 12.0825 104.899 12.1069 104.899 12.3143C104.899 12.5462 104.936 12.534 105.607 12.2289C106.18 11.9604 106.473 11.8994 107.303 11.8994C108.206 11.8994 108.34 11.936 108.828 12.2655C109.109 12.473 109.451 12.839 109.585 13.0953C110.073 14.0959 110.146 14.7183 110.146 17.7934V20.7465H109.06H107.974L107.925 17.8544C107.864 14.6573 107.791 14.279 107.193 13.9617C106.803 13.7665 105.814 13.8031 105.18 14.0471L104.899 14.157V17.4517V20.7465H103.801H102.702V16.4145Z" fill="#3E73B0"/>
<path d="M111.855 16.4148V12.0828H112.953H114.051V16.4148V20.7468H112.953H111.855V16.4148Z" fill="#3E73B0"/>
<path d="M145.901 14.8283V8.90991H147.89H149.891L151.148 13.2175C151.832 15.5727 152.478 17.7692 152.576 18.0987C152.661 18.416 152.796 18.6723 152.857 18.6723C152.93 18.6723 152.979 16.8296 152.979 13.7911V8.90991H154.138H155.297V14.8283V20.759L153.381 20.7224L151.465 20.6857L149.977 15.8046C149.159 13.1321 148.439 10.9112 148.354 10.8868C148.256 10.8502 148.219 12.1315 148.219 15.7924V20.7468H147.06H145.901V14.8283Z" fill="#3E73B0"/>
<path d="M172.747 16.4148V12.0828H173.846H174.944V16.4148V20.7468H173.846H172.747V16.4148Z" fill="#3E73B0"/>
<path d="M185.927 16.4147V12.0826H187.086C188.135 12.0826 188.245 12.107 188.245 12.3145C188.245 12.5219 188.282 12.5097 188.867 12.2413C189.27 12.046 189.795 11.924 190.356 11.8752C191.149 11.8264 191.308 11.8508 191.906 12.168C193.212 12.8392 193.492 13.8643 193.492 17.9278V20.7467H192.333H191.174V17.879C191.174 14.7551 191.113 14.3646 190.515 13.9741C190.259 13.8032 190.051 13.7788 189.502 13.8521C189.124 13.9009 188.684 13.9863 188.526 14.0473L188.245 14.1571V17.4519V20.7467H187.086H185.927V16.4147Z" fill="#3E73B0"/>
<path d="M72.207 17.5617C71.5724 16.8784 70.1935 15.6093 69.1563 14.7307C66.9353 12.8636 65.9347 11.8752 65.2879 10.8989C64.7876 10.1424 64.3483 9.04409 64.2019 8.18988L64.1165 7.66515L65.3123 8.87324C65.9835 9.54441 66.9841 10.4108 67.5577 10.8013C68.7414 11.6189 69.9983 12.7782 70.8769 13.8887C71.4992 14.6574 71.7067 14.8039 71.7067 14.45C71.7067 14.3402 71.3528 12.7416 70.9135 10.9111C70.1203 7.53092 69.8396 6.73773 69.0098 5.52964C68.8146 5.24897 68.6559 4.99271 68.6559 4.9561C68.6559 4.90729 69.0586 5.07813 69.5468 5.32219C70.7427 5.93234 72.0728 7.25025 72.5487 8.32411C73.2565 9.89829 73.3297 10.3742 73.3785 14.2181C73.4151 16.1706 73.4151 17.9888 73.3907 18.2695L73.3541 18.7942L72.207 17.5617Z" fill="#3E73B0"/>
<path d="M5.8355 14.7429C5.89652 10.4597 5.98194 9.83735 6.72632 8.20215C7.26325 7.03067 9.21572 5.31006 10.4238 4.94397C10.6923 4.87075 10.6801 4.90736 10.2896 5.45649C9.70383 6.27409 9.28893 7.12829 9.00827 8.11673C8.52015 9.76413 7.4829 14.5233 7.56832 14.6087C7.62933 14.6697 7.83678 14.4867 8.05644 14.2182C8.93505 13.0955 10.4604 11.6312 11.6075 10.8258C12.2787 10.3621 13.3403 9.45906 13.9627 8.8245C15.183 7.5676 15.2318 7.5798 14.8535 8.93433C14.3898 10.6305 13.2549 12.0095 10.1431 14.6453C9.1425 15.4873 7.78797 16.7442 7.14122 17.4276C6.49446 18.1109 5.93313 18.6723 5.88431 18.6723C5.8355 18.6723 5.8111 16.9028 5.8355 14.7429Z" fill="#3E73B0"/>
<path d="M33.4262 17.1102C33.5239 15.7557 33.7679 14.8405 34.3537 13.608C35.6716 10.8379 38.1244 8.84882 41.8097 7.5187C42.5907 7.23803 42.6761 7.22583 42.6151 7.40888C41.3093 11.9362 40.7846 13.1565 39.6009 14.45C38.3318 15.8289 37.3434 16.4757 34.915 17.5129L33.353 18.1719L33.4262 17.1102Z" fill="#3E73B0"/>
<path d="M68.1069 9.69072C65.3856 7.32336 64.6413 6.50576 62.5668 3.66247C61.4685 2.17372 60.6143 0.929018 60.6387 0.892409C60.7973 0.745974 63.3722 1.96627 64.8121 2.88149C66.9842 4.24822 68.2167 5.94442 69.1197 8.78771C69.4492 9.84936 69.7177 10.9964 69.6079 10.972C69.5957 10.972 68.9123 10.3863 68.1069 9.69072Z" fill="#3E73B0"/>
<path d="M9.65491 10.4719C10.2285 7.81162 11.4732 5.29782 12.8155 4.05312C13.511 3.40636 15.0852 2.38131 16.3055 1.77117C17.5136 1.16102 18.7949 0.685106 18.6729 0.880353C18.0505 1.88099 14.7313 6.24964 14.0602 6.93301C13.1938 7.83603 9.78915 10.8624 9.64271 10.8624C9.6061 10.8624 9.6183 10.6793 9.65491 10.4719Z" fill="#3E73B0"/>
<path d="M111.855 9.70322V8.54395H112.953H114.051V9.70322V10.8625H112.953H111.855V9.70322Z" fill="#3E73B0"/>
<path d="M172.747 9.70322V8.54395H173.846H174.944V9.70322V10.8625H173.846H172.747V9.70322Z" fill="#3E73B0"/>
</svg>
